<svg width="289" height="201" viewBox="0 0 289 201" fill="none" xmlns="http://www.w3.org/2000/svg">
<path d="M63.1557 191.393C66.0933 191.393 68.7371 191.393 71.3809 191.393C104.869 191.393 138.358 191.393 171.846 191.334C191.645 191.334 211.386 191.334 231.185 191.334C232.301 191.334 233.594 191.804 234.358 190.513C234.299 189.281 234.123 187.99 234.123 186.758C234.123 162.704 234.123 138.65 234.123 114.596C234.123 113.247 233.711 111.78 235.709 111.018C235.944 111.839 236.296 112.66 236.296 113.482C236.296 115.066 236.061 116.65 236.003 118.292C236.003 119.231 236.296 120.228 236.296 121.167C236.238 124.746 236.003 128.383 235.944 131.962C235.944 133.722 236.296 135.424 236.238 137.184C236.179 141.994 235.944 146.864 235.885 151.675C235.885 153.435 236.238 155.136 236.238 156.896C236.238 159.947 236.179 162.998 236.238 166.048C236.296 169.392 235.944 172.795 235.944 176.139C235.944 178.251 236.238 180.422 236.238 182.534C236.238 184.001 236.061 185.409 236.003 186.876C235.944 188.284 235.474 189.809 236.59 191.276C253.569 191.276 270.666 191.276 287.939 191.276C287.998 191.862 288.057 192.332 288.115 192.625C287.88 192.86 287.822 192.918 287.763 192.977C287.704 193.036 287.587 193.036 287.469 193.036C192.233 193.036 96.9378 193.094 1.70159 193.094C1.46658 193.094 1.17282 192.918 0.820312 192.742C0.879064 192.332 0.879064 191.98 0.937816 191.334C21.0308 191.334 41.0651 191.334 61.2756 191.334C61.3344 190.22 61.3931 189.34 61.3931 188.518C61.3931 163.702 61.3931 138.826 61.3931 114.01C61.3931 113.012 60.9231 111.78 62.3332 111.018C62.6269 111.487 63.0382 111.898 63.0969 112.367C63.2144 113.716 63.1557 115.124 63.1557 116.474C63.1557 140.704 63.1557 164.992 63.1557 189.222C63.0382 189.809 63.0969 190.396 63.1557 191.393Z" fill="black"/>
<path d="M0.643555 198.726C1.05482 198.432 1.52483 197.904 1.93609 197.904C4.93242 197.904 7.92874 197.787 10.9251 197.846C13.8626 197.904 16.8002 197.846 19.7378 197.846C22.7929 197.846 25.7892 197.846 28.8443 197.846C31.7819 197.846 34.7194 197.846 37.657 197.846C40.7121 197.846 43.7084 197.846 46.7635 197.846C49.7011 197.846 52.6387 197.846 55.5762 197.846C58.6313 197.846 61.6276 197.787 64.6827 197.846C68.2078 197.904 71.6742 198.198 75.1992 198.198C77.9018 198.198 80.5456 197.904 83.2482 197.846C86.0095 197.787 88.7121 197.846 91.4734 197.846C132.482 197.846 173.491 197.846 214.499 197.846C217.025 197.846 219.552 198.198 222.078 198.198C225.779 198.198 229.481 197.904 233.182 197.846C237.295 197.787 241.407 197.787 245.52 197.846C246.695 197.846 247.811 198.139 248.986 198.139C250.338 198.139 251.689 197.904 253.04 197.904C255.978 197.846 258.915 197.846 261.853 197.846C268.316 197.846 274.778 197.846 281.241 197.846C283.062 197.846 284.883 197.787 286.705 197.904C287.175 197.904 287.645 198.432 288.291 198.784C287.88 199.312 287.586 199.664 287.41 199.899C285.882 199.84 284.531 199.664 283.18 199.664C242.582 199.664 201.926 199.664 161.329 199.664C160.154 199.664 159.038 199.899 157.863 199.958C157.158 200.016 156.511 200.016 155.806 200.016C152.575 199.899 149.402 199.664 146.171 199.664C135.478 199.606 124.844 199.606 114.152 199.664C110.861 199.664 107.513 200.016 104.223 200.016C96.4085 199.958 88.5946 199.782 80.7806 199.664C79.6056 199.664 78.4893 199.899 77.3143 199.958C76.7268 200.016 76.1393 200.016 75.5518 200.016C73.4955 199.899 71.4979 199.664 69.4416 199.664C48.1735 199.664 26.9642 199.664 5.69619 199.664C4.75616 199.664 3.75739 199.782 2.81736 199.958C1.87734 200.134 1.11357 199.958 0.643555 198.726Z" fill="black"/>
<path d="M116.208 56.9247C112.624 53.9326 110.685 50.3539 111.214 45.6604C111.508 43.079 112.741 40.9083 114.328 38.9136C120.379 31.052 128.252 25.4199 136.771 20.5504C137.006 20.4331 137.3 20.3744 137.593 20.1984C137.828 20.4917 138.063 20.7851 138.416 21.1957C136.83 22.8971 134.715 23.3665 132.952 24.5985C131.189 25.8305 129.427 27.0039 127.723 28.2946C126.078 29.5266 124.433 30.7587 122.964 32.1667C121.495 33.5161 119.909 34.8654 118.499 36.7428C122.318 36.8602 125.608 36.9775 128.839 36.9775C132.247 37.0362 135.596 36.6255 139.003 36.9188C142.294 37.1535 145.584 36.6255 148.874 36.8602C152.223 37.0948 155.513 36.4495 158.744 36.6842C162.152 36.9188 165.5 36.1561 168.908 36.5668C172.139 36.9775 175.312 36.5668 179.013 36.7428C176.076 32.9294 172.668 30.4067 169.26 27.9426C165.912 25.5372 162.328 23.4251 158.803 21.1371C159.214 20.7264 159.39 20.4917 159.801 20.0811C161.74 21.2544 163.738 22.4278 165.677 23.6011C170.259 26.4172 174.607 29.5853 178.367 33.4574C181.011 36.1561 183.537 38.9722 185.123 42.4923C185.887 44.1937 186.71 45.8951 186.357 47.7725C185.828 50.6472 184.888 53.4046 182.832 55.5753C181.951 56.5727 180.835 56.9247 179.424 56.9247C158.391 56.9247 137.476 56.9247 116.208 56.9247ZM180.129 38.3269C159.038 38.3269 137.946 38.3269 116.854 38.3269C114.739 40.8496 112.859 43.3723 112.8 46.8338C112.741 50.2952 114.034 52.9939 116.678 55.106C138.063 55.106 159.39 55.106 180.6 55.106C186.122 50.4712 185.652 43.5483 180.129 38.3269Z" fill="black"/>
<path d="M201.516 107.439C170.789 107.439 140.238 107.439 109.57 107.439C109.511 106.911 109.452 106.441 109.394 105.854C140.238 105.854 170.965 105.854 202.045 105.854C202.515 106.324 203.22 107.145 204.16 108.084C216.791 108.084 229.658 108.084 242.642 108.084C242.701 108.612 242.76 108.964 242.818 109.257C242.701 109.433 242.642 109.492 242.525 109.551C242.466 109.609 242.348 109.727 242.29 109.727C241.702 109.785 241.114 109.844 240.527 109.844C229.07 109.844 217.614 109.844 206.157 109.844C205.511 110.489 205.805 111.017 206.216 111.604C207.567 113.481 208.919 115.359 210.446 117.471C209.741 117.705 209.154 117.999 208.566 117.999C206.392 118.057 204.277 118.057 202.103 118.057C193.173 118.057 184.302 118.057 175.372 118.057C174.432 118.057 173.433 118.057 172.199 118.057C173.08 116.708 173.961 116.297 175.078 116.415C176.312 116.532 177.604 116.649 178.838 116.708C182.657 116.767 186.476 116.767 190.294 116.708C191.469 116.708 192.586 116.473 193.761 116.356C194.172 116.297 194.583 116.18 194.936 116.297C197.638 117.06 200.4 116.591 203.102 116.649C204.512 116.708 205.981 116.356 207.626 116.18C205.452 113.071 203.455 110.255 201.516 107.439Z" fill="black"/>
<path d="M191.821 185.761C191.469 184.822 191.116 184.235 191.116 183.648C191.057 181.888 191.116 180.128 191.116 178.368C191.116 161.648 191.116 144.927 191.116 128.266C191.116 127.21 190.764 126.095 192.056 125.156C195.934 125.156 200.046 125.156 204.394 125.156C205.804 127.796 205.158 130.671 204.864 133.546C205.217 133.78 205.628 134.074 205.98 134.367C206.098 134.484 206.215 134.661 206.392 134.954C205.98 135.541 205.569 136.186 205.158 136.831C205.158 150.442 205.158 164.112 205.158 177.958C205.51 178.368 205.922 178.896 206.333 179.366C206.274 179.6 206.333 179.835 206.215 179.952C205.393 180.715 204.982 181.654 205.158 182.827C205.275 183.648 205.51 184.587 204.335 185.35C202.396 184.235 204.453 181.771 202.749 180.422C199.694 180.422 196.521 180.422 193.349 180.422C191.645 181.712 193.466 183.942 191.821 185.761ZM193.407 135.893C192.409 137.007 192.82 138.122 192.82 139.119C192.82 150.853 192.82 162.587 192.82 174.32C192.82 175.552 192.702 176.784 192.585 178.192C192.879 178.368 193.29 178.779 193.76 178.779C196.521 178.838 199.224 178.896 201.985 178.838C202.455 178.838 202.866 178.603 203.395 178.427C203.454 177.782 203.513 177.195 203.513 176.667C203.513 164.053 203.513 151.44 203.513 138.826C203.513 138.357 203.572 137.829 203.513 137.359C203.395 136.773 203.043 136.186 202.866 135.717C199.518 136.303 196.521 136.186 193.407 135.893ZM202.984 126.858C199.4 126.858 196.345 126.858 193.114 126.858C191.997 129.028 193.466 131.434 192.291 133.604C195.523 134.895 198.636 134.132 201.691 134.25C202.279 134.25 202.866 133.839 203.513 133.663C203.16 131.316 203.807 129.087 202.984 126.858Z" fill="black"/>
<path d="M103.871 180.363C100.757 180.363 97.5842 180.363 94.4704 180.363C93.2954 181.947 95.1167 184.235 92.8254 185.585C91.8266 184.118 92.6491 182.651 92.1791 181.126C91.8853 180.774 91.4741 180.246 90.9453 179.542C91.4153 179.014 91.8266 178.544 92.2966 178.016C92.2966 164.288 92.2966 150.501 92.2966 136.773C91.8853 136.186 91.4741 135.658 90.9453 135.013C91.4153 134.485 91.8266 133.956 92.1791 133.546C92.7666 130.788 91.6503 127.914 92.8841 125.156C97.1142 125.156 101.109 125.156 105.398 125.156C105.692 126.036 106.044 127.034 106.338 127.972C106.397 128.266 106.397 128.559 106.338 128.852C105.927 134.661 106.338 140.469 106.221 146.277C105.986 156.133 106.338 165.989 106.456 175.787C106.514 178.368 105.986 180.95 106.338 183.59C106.397 184.176 105.986 184.822 105.809 185.467C103.518 184.176 105.692 181.654 103.871 180.363ZM94.7642 135.893C93.7066 136.655 94.1179 137.829 94.1179 138.826C94.1179 150.56 94.1179 162.235 94.1179 173.968C94.1179 175.376 94.0004 176.843 93.8829 178.368C94.2354 178.544 94.6467 178.896 95.1167 178.896C98.2893 179.072 101.462 178.486 104.693 178.251C104.693 177.664 104.693 177.254 104.693 176.902C104.693 166.165 104.693 155.429 104.752 144.693C104.752 142.346 104.752 139.999 104.752 137.653C104.752 136.831 104.634 136.127 104.106 135.834C100.757 135.893 97.7605 135.893 94.7642 135.893ZM103.929 134.25C104.752 132.724 104.811 132.314 104.634 128.911C104.576 128.207 104.282 127.503 104.106 126.858C100.698 126.858 97.643 126.858 94.4704 126.858C93.1779 129.028 94.8817 131.434 93.5891 133.546C94.1766 133.839 94.5879 134.25 95.0579 134.25C97.9367 134.25 100.816 134.25 103.929 134.25Z" fill="black"/>
<path d="M78.3135 187.932C125.138 187.932 171.787 187.932 218.377 187.932C218.495 188.108 218.671 188.284 218.671 188.401C218.671 188.694 218.612 188.929 218.553 189.398C218.083 189.457 217.613 189.516 217.143 189.516C175.547 189.516 133.951 189.516 92.3551 189.516C88.36 189.516 84.3061 189.516 80.311 189.516C79.4298 189.516 78.5485 189.574 78.3135 187.932Z" fill="black"/>
<path d="M109.745 98.6969C109.216 96.2328 109.099 83.5018 109.451 77.4003C110.333 76.2269 111.625 76.4029 112.918 76.4029C124.492 76.4029 136.007 76.4029 147.581 76.4029C159.802 76.4029 172.022 76.4029 184.301 76.4029C185.241 76.4029 186.181 76.4616 187.004 76.4616C188.002 77.635 188.179 78.7497 188.179 79.9817C188.12 82.9151 188.296 85.8485 188.179 88.7819C188.061 91.6567 187.767 94.5901 187.532 97.4648C187.532 97.8168 187.18 98.1102 186.769 98.6969C186.416 98.0515 185.946 97.6408 185.946 97.1715C185.887 95.7048 185.77 94.2381 186.005 92.7714C186.71 88.1366 186.24 83.4431 186.416 79.043C185.535 77.7523 184.477 78.1043 183.537 78.1043C174.724 78.1043 165.912 78.1043 157.099 78.1043C142.529 78.1043 127.958 78.1043 113.388 78.1043C112.8 78.1043 112.213 78.1043 111.449 78.1043C111.332 78.867 111.155 79.4537 111.155 80.099C111.155 85.4965 111.155 90.8353 111.155 96.2328C111.155 97.2888 111.214 98.2275 109.745 98.6969Z" fill="black"/>
<path d="M54.4014 108.847C54.9301 107.615 56.0464 107.967 56.9864 107.967C65.3879 107.967 73.7894 107.967 82.2496 107.967C85.8922 107.967 89.476 107.967 93.1774 107.967C93.9999 107.204 94.8812 106.441 95.7037 105.62C98.4063 105.62 101.05 105.62 103.635 105.62C104.516 105.62 105.163 105.855 105.28 107.087C102.284 107.732 99.2875 107.145 95.9975 107.439C93.7649 110.02 91.6498 112.954 89.711 116.591C93.4124 116.591 96.585 116.532 99.7575 116.591C102.93 116.65 106.103 116.356 109.275 116.532C112.389 116.708 115.562 116.415 118.676 116.591C121.848 116.826 125.021 116.063 128.193 116.474C131.366 116.884 134.656 116.532 137.887 116.532C141.119 116.532 144.35 116.532 147.581 116.532C150.695 116.532 153.75 116.356 156.864 116.532C159.978 116.708 163.092 115.887 166.206 117.236C164.913 117.471 163.562 117.823 162.269 117.823C138.005 117.823 113.74 117.823 89.476 117.823C88.7123 117.823 87.9485 117.706 86.8322 117.647C88.1835 114.655 90.5336 112.66 91.8261 109.727C90.9448 109.668 90.2986 109.61 89.6523 109.61C78.7833 109.61 67.9142 109.61 57.0452 109.61C56.1639 109.786 54.9301 110.255 54.4014 108.847Z" fill="black"/>
<path d="M204.57 122.398C204.159 122.516 203.807 122.692 203.454 122.692C166.676 122.692 129.956 122.692 92.9424 122.692C93.0011 121.988 93.0011 121.577 93.0011 120.99C105.75 120.99 118.264 120.99 130.837 120.99C140.531 120.99 150.225 120.99 159.919 120.99C161.564 120.99 163.209 120.756 164.796 121.401C164.972 121.46 165.207 121.46 165.383 121.46C168.262 121.284 171.141 121.166 173.961 120.99C174.548 120.932 175.136 120.932 175.723 120.932C184.654 120.932 193.525 120.932 202.455 120.873C203.513 120.99 204.453 120.932 204.57 122.398Z" fill="black"/>
<path d="M116.972 61.5599C116.972 64.4347 116.972 67.3681 116.972 70.2428C116.796 70.3015 116.62 70.3015 116.502 70.3602C116.267 69.7735 115.856 69.2455 115.797 68.6588C115.738 66.7814 115.738 64.9627 115.797 63.0853C115.856 61.9706 115.503 61.2079 114.328 60.5626C113.271 60.1519 111.567 61.7946 110.568 59.6825C111.743 58.6265 113.095 58.6265 114.563 58.9199C115.327 59.0372 116.091 59.2132 116.855 59.1545C118.794 59.0959 120.732 58.8025 122.671 58.7438C140.59 58.6852 158.51 58.7438 176.429 58.7438C177.486 58.7438 178.544 58.9785 179.601 59.0372C180.365 59.0959 181.129 58.9199 181.893 58.9199C183.42 58.9199 185.065 58.3332 186.534 59.5652C185.712 62.3226 183.479 59.4479 182.128 60.6799C182.01 61.3253 181.716 61.9706 181.716 62.5573C181.658 64.4933 181.775 66.4881 181.716 68.4241C181.716 69.0108 181.364 69.5975 180.659 70.3015C180.424 69.7735 179.954 69.2455 179.954 68.7174C179.895 67.0747 179.954 65.3734 179.954 63.7306C179.954 62.8506 179.954 62.0293 179.954 61.0319C179.249 60.7972 178.72 60.5626 178.191 60.5626C158.627 60.5626 139.063 60.5626 119.44 60.5626C118.617 60.5626 117.854 60.4452 116.972 61.5599Z" fill="black"/>
<path d="M221.55 69.2452C221.903 68.8345 222.079 68.6585 222.255 68.4238C222.49 68.4238 222.666 68.3652 222.784 68.4825C226.309 70.5946 229.775 72.7653 232.654 75.7574C233.888 76.9894 235.239 78.2214 236.121 79.6295C238.412 83.2082 237.942 86.611 234.946 89.2511C234.711 89.4271 234.476 89.6031 234.123 89.7791C226.192 89.7791 218.201 89.7791 210.152 89.7791C206.804 89.7791 203.513 89.7791 200.165 89.7791C196.228 89.7791 193.643 85.731 195.053 81.9762C196.287 78.7495 198.637 76.4027 201.163 74.2907C203.396 72.4133 205.922 70.8879 208.272 69.2452C208.919 68.8345 209.565 68.2478 210.446 69.0105C210.446 70.1839 209.506 70.5946 208.684 71.0053C204.395 73.352 200.635 76.4027 197.638 80.3335C195.641 83.0322 195.876 85.6136 198.578 87.9604C210.152 87.9604 221.785 87.9604 233.477 87.9604C235.063 87.1977 235.651 85.731 236.121 84.0296C235.416 80.4508 233.124 77.8694 230.304 75.6987C227.543 73.528 224.605 71.4746 221.55 69.2452Z" fill="black"/>
<path d="M75.9047 68.952C75.9635 70.008 75.1409 70.4774 74.3772 70.888C70.0296 73.2348 66.2695 76.2269 63.3319 80.1576C61.5693 82.563 61.0406 86.2591 64.1544 87.9605C75.6697 87.9605 87.3613 87.9605 98.9941 87.9605C100.522 87.1391 101.285 85.7311 101.638 83.9124C100.933 80.3336 98.6415 77.8109 95.7627 75.6402C93.5302 73.9388 91.1801 72.4134 88.8888 70.7707C88.2425 70.3014 87.7138 69.832 87.0087 69.2453C87.3025 68.8933 87.4788 68.6 87.655 68.3066C87.9488 68.3653 88.125 68.3066 88.2425 68.424C91.7676 70.536 95.1752 72.7068 98.1128 75.6988C99.3466 76.9309 100.639 78.1629 101.579 79.6296C103.87 83.267 103.342 86.6698 100.345 89.2512C100.11 89.4272 99.8753 89.5445 99.5228 89.7792C89.0063 89.7792 78.4898 89.7792 67.9145 89.7792C66.9157 89.7792 65.9757 89.7792 64.9769 89.7792C63.7431 89.7792 62.7444 89.3099 61.9218 88.3712C60.1593 86.3765 59.748 83.5017 60.9231 81.0963C62.2744 78.3389 64.3894 76.1095 66.7395 74.2321C68.972 72.4134 71.4983 70.888 73.9072 69.1867C74.4359 68.776 75.0822 68.248 75.9047 68.952Z" fill="black"/>
<path d="M195.288 100.223C195.934 98.8733 194.583 97.4653 196.052 96.3506C197.462 97.4653 197.109 98.8147 196.698 100.105C196.992 100.457 197.286 100.751 197.814 101.396C195.876 101.572 194.407 101.807 192.879 101.865C188.708 101.924 184.537 101.983 180.306 101.924C174.431 101.865 168.615 101.748 162.74 101.689C160.096 101.689 157.511 101.983 154.867 101.983C153.516 101.983 152.164 101.689 150.813 101.689C136.243 101.631 121.672 101.631 107.102 101.689C106.044 101.689 104.987 101.865 103.694 101.924C103.518 101.689 103.224 101.279 102.931 100.868C103.166 100.692 103.224 100.575 103.283 100.575C103.342 100.516 103.459 100.516 103.518 100.457C103.636 100.399 103.694 100.399 103.812 100.399C103.988 100.399 104.223 100.399 104.399 100.399C110.745 100.399 117.09 100.399 123.494 100.399C147.053 100.399 170.671 100.399 194.231 100.399C194.524 100.399 194.818 100.399 195.112 100.34C195.229 100.281 195.347 100.223 195.288 100.223Z" fill="black"/>
<path d="M70.7346 151.498C75.611 151.498 80.2524 151.439 85.1288 151.557C85.4225 152.906 85.8338 154.021 85.8338 155.077C85.8925 160.826 85.8925 166.634 85.8338 172.384C85.8338 173.381 85.4813 174.437 85.305 175.435C80.3111 175.435 75.6698 175.435 70.9697 175.435C70.8522 175.083 70.6171 174.848 70.6171 174.555C70.4409 170.683 70.1471 166.81 70.2059 162.88C70.2059 159.242 70.5584 155.546 70.7346 151.498ZM84.0125 153.786C81.6624 153.082 74.3772 153.082 71.9684 153.61C71.9684 160.298 71.9684 167.045 71.9684 173.733C72.4384 173.909 72.791 174.144 73.1435 174.144C76.1398 174.203 79.1361 174.203 82.1324 174.144C82.8375 174.144 83.4837 173.616 84.0125 173.381C84.0125 166.752 84.0125 160.298 84.0125 153.786Z" fill="black"/>
<path d="M226.367 175.435C221.667 175.435 217.026 175.435 212.149 175.435C211.973 174.789 211.679 174.144 211.679 173.557C211.621 166.517 211.679 159.477 211.679 152.261C212.267 152.026 212.854 151.557 213.442 151.557C217.437 151.498 221.432 151.498 225.486 151.557C225.897 151.557 226.367 151.909 226.955 152.143C226.955 159.594 226.955 166.986 226.955 174.379C226.896 174.613 226.602 174.965 226.367 175.435ZM213.559 153.786C213.559 160.416 213.559 167.045 213.559 173.499C214.558 174.613 215.733 174.379 216.732 174.144C218.083 173.851 219.376 174.027 220.727 174.144C222.372 174.32 224.252 174.789 225.604 173.323C225.604 166.928 225.604 160.533 225.604 154.197C225.604 153.962 225.31 153.727 224.957 153.258C221.608 153.258 218.142 153.258 214.617 153.258C214.264 153.258 213.912 153.61 213.559 153.786Z" fill="black"/>
<path d="M192.232 73.4105C192.232 73.9386 192.232 74.2906 192.232 74.8772C191.469 74.9359 190.705 75.0533 189.941 75.0533C186.945 74.9359 183.89 74.7012 180.893 74.7012C157.686 74.6426 134.538 74.7012 111.331 74.7012C109.98 74.7012 108.629 74.9946 107.278 75.0533C106.279 75.1119 105.045 75.4639 104.634 73.7039C105.045 73.5865 105.456 73.2932 105.868 73.2932C108.1 73.2345 110.391 73.4692 112.624 73.2345C116.678 72.7652 120.732 73.4692 124.844 73.2932C128.957 73.1172 133.07 73.2932 137.182 73.2932C141.177 73.2932 145.231 73.2932 149.226 73.2932C153.339 73.2932 157.451 73.2932 161.564 73.2932C165.677 73.2932 169.789 73.2932 173.902 73.2932C179.366 73.2932 184.771 73.2932 190.235 73.2932C190.881 73.2932 191.527 73.4105 192.232 73.4105Z" fill="black"/>
<path d="M131.542 185.467C129.897 185.115 130.015 184.176 130.015 183.296C130.015 177.547 129.956 171.797 129.956 165.989C129.956 153.493 130.015 140.996 130.015 128.5C130.015 127.913 129.897 127.268 130.074 126.74C130.191 126.271 130.661 125.86 130.896 125.449C131.249 125.684 131.542 125.801 131.542 125.919C131.601 144.927 131.66 163.994 131.719 183.003C131.777 183.824 131.66 184.587 131.542 185.467Z" fill="black"/>
<path d="M166.03 185.408C165.795 184.939 165.383 184.469 165.325 184C165.207 183.061 165.325 182.064 165.325 181.067C165.325 163.466 165.325 145.924 165.325 128.324C165.325 127.327 164.972 126.153 166.558 125.508C166.735 126.094 167.028 126.564 167.028 127.033C167.087 129.087 167.028 131.14 167.028 133.193C167.028 149.679 167.028 166.165 167.028 182.709C167.028 183.648 167.322 184.704 166.03 185.408Z" fill="black"/>
<path d="M226.838 146.629C226.485 146.863 226.191 147.274 225.839 147.274C221.609 147.333 217.437 147.333 213.207 147.333C212.796 147.333 212.326 146.981 211.856 146.746C211.797 146.042 211.68 145.338 211.68 144.692C211.68 140.175 211.68 135.716 211.68 131.199C211.68 127.444 214.617 124.041 217.907 123.396C222.314 122.516 226.896 125.625 227.014 130.436C227.073 135.423 227.014 140.41 227.014 145.396C226.955 145.807 226.896 146.218 226.838 146.629ZM225.193 145.572C225.369 144.868 225.663 144.34 225.663 143.812C225.721 139.823 225.78 135.775 225.604 131.785C225.545 130.553 225.134 129.321 224.605 128.207C223.312 125.508 220.904 124.511 217.731 125.097C215.557 125.508 213.501 127.855 213.442 130.377C213.325 135.364 213.383 140.292 213.383 145.22C213.795 145.455 214.089 145.748 214.324 145.748C217.907 145.69 221.491 145.572 225.193 145.572Z" fill="black"/>
<path d="M84.6002 147.274C80.0763 147.274 75.6112 147.274 71.0873 147.274C70.2061 146.218 69.9123 145.162 70.3236 143.813C70.5586 142.991 70.4998 142.111 70.4998 141.231C70.5586 137.653 70.4411 134.074 70.4411 130.554C70.4411 127.386 72.8499 124.159 76.4925 123.455C79.9588 122.751 83.4839 124.922 84.8352 128.266C85.5402 129.908 85.834 131.551 85.834 133.37C85.7752 136.773 85.7752 140.175 85.834 143.637C85.8927 144.81 85.7752 145.983 84.6002 147.274ZM75.7875 125.098C73.2612 126.916 73.2612 126.916 71.9686 129.204C71.9686 134.778 71.9686 140.058 71.9686 145.69C75.67 145.69 79.2538 145.69 83.1314 145.69C83.6602 145.455 84.0714 144.81 84.0714 143.813C84.0127 139.53 84.1889 135.247 84.0127 130.964C83.8952 128.031 81.7214 124.511 77.6088 125.039C77.08 125.098 76.4925 125.039 75.7875 125.098Z" fill="black"/>
<path d="M0.467773 132.314C1.29029 132.197 1.76031 132.021 2.23032 132.021C21.2658 132.021 40.3013 132.079 59.8656 132.079C59.2193 132.901 58.9255 133.429 58.5143 133.605C57.9855 133.839 57.398 133.722 56.8105 133.722C39.0088 133.722 21.2071 133.722 3.40535 133.722C2.81783 133.722 2.17157 133.839 1.70156 133.663C1.29029 133.487 0.996537 132.901 0.467773 132.314Z" fill="black"/>
<path d="M37.3638 161.471C34.0737 161.354 34.0737 161.354 32.0174 164.053C32.0174 170.389 32.0174 176.725 32.0174 183.237C34.1325 183.883 36.3063 183.472 38.4213 183.589C38.9501 183.589 39.4201 183.237 39.9489 183.061C40.4189 181.067 39.7139 179.072 40.4189 177.136C41.5352 178.251 41.6527 179.717 41.1827 184.763C38.1276 185.995 34.8375 184.352 31.7824 185.349C30.4899 184.763 30.2549 183.589 30.2549 182.416C30.2549 176.843 30.2549 171.269 30.2549 165.696C30.2549 163.114 31.6649 161.178 33.78 160.063C35.4838 159.183 37.4226 159.359 39.0089 160.65C39.8314 161.295 40.5364 162.175 41.3002 162.997C41.3589 166.928 41.3589 170.917 41.3002 174.848C41.0652 174.906 40.8302 174.906 40.5952 174.965C40.4189 174.613 40.0076 174.261 40.0076 173.909C39.9489 171.562 39.8901 169.216 40.0076 166.869C40.1839 164.581 39.4201 162.821 37.3638 161.471Z" fill="black"/>
<path d="M56.7514 185.115C53.2263 185.115 50.1712 185.115 47.1161 185.115C46.7636 185.115 46.4111 184.822 46.0586 184.587C46.0586 179.424 46.0586 174.261 46.0586 169.04C47.5274 168.981 47.5861 170.155 47.5861 170.8C47.5274 174.672 47.2924 178.544 47.1161 182.651C47.8799 183.003 48.5262 183.531 49.2312 183.531C51.2287 183.414 53.285 184.059 55.3413 183.062C55.4001 182.299 55.4588 181.654 55.4588 180.949C55.4588 176.08 55.4588 171.152 55.4588 166.282C55.4588 165.696 55.5176 165.109 55.4001 164.522C55.1651 162.938 54.0488 161.53 52.7563 161.354C50.4062 161.061 49.2312 161.296 48.3499 163.232C47.9974 163.936 47.5274 164.522 47.1161 165.168C47.0574 165.285 46.7636 165.285 46.3524 165.402C46.2348 164.874 45.9998 164.346 46.1173 163.877C46.9986 160.944 49.5837 159.242 52.58 159.536C55.1063 159.829 57.1626 162.352 57.2801 165.402C57.3389 166.869 57.2801 168.336 57.2801 169.803C57.2801 174.027 57.2801 178.192 57.2801 182.416C57.1039 183.238 56.9276 184 56.7514 185.115Z" fill="black"/>
<path d="M266.906 185.056C263.439 185.056 260.326 185.056 256.742 185.056C256.624 184.88 255.802 184.235 255.86 183.648C255.978 181.419 255.097 179.013 256.683 176.667C258.504 178.72 256.8 181.184 257.975 183.413C260.091 183.883 262.441 183.531 265.026 183.648C265.261 183.061 265.672 182.475 265.672 181.888C265.731 176.725 265.731 171.504 265.672 166.341C265.672 164.229 265.202 163.466 263.146 161.53C262.676 161.471 262.147 161.354 261.559 161.413C259.033 161.53 257.623 162.938 257.564 165.461C257.505 167.925 257.564 170.33 257.564 172.794C257.564 173.44 257.447 174.144 257.388 175.2C256.683 174.613 255.978 174.32 255.978 174.026C255.919 170.565 255.332 167.045 256.33 163.583C256.683 162.234 257.094 161.882 259.562 159.887C262.147 159.301 264.379 159.711 266.024 161.999C266.494 162.703 266.964 163.583 266.964 164.346C266.964 171.093 266.906 177.781 266.906 185.056Z" fill="black"/>
<path d="M238.118 133.604C238.118 133.076 238.118 132.724 238.118 132.02C254.745 132.02 271.313 131.962 288.409 132.02C287.704 132.9 287.411 133.428 286.999 133.604C286.588 133.78 286.059 133.663 285.589 133.663C270.138 133.663 254.686 133.663 239.234 133.663C238.999 133.78 238.706 133.663 238.118 133.604Z" fill="black"/>
<path d="M249.81 183.297C249.81 179.601 249.81 176.081 249.81 172.56C249.81 171.68 249.751 170.8 249.868 169.92C249.927 169.392 250.338 168.982 250.808 168.102C251.102 169.216 251.631 170.038 251.513 170.683C250.808 174.145 252.336 177.606 251.22 181.067C251.043 181.537 251.455 182.182 251.513 182.769C251.631 184.353 250.867 185.174 249.34 185.174C246.872 185.174 244.404 185.233 241.878 185.233C241.408 185.233 240.997 184.881 240.351 184.587C240.351 183.238 240.351 181.889 240.351 180.539C240.351 175.435 240.409 170.39 240.351 165.286C240.351 163.526 240.938 162.059 242.289 160.944C244.639 158.949 247.518 159.067 249.575 161.296C250.338 162.118 250.926 163.174 251.631 164.288C251.278 164.699 250.985 165.168 250.691 165.52C250.338 165.344 250.103 165.286 250.045 165.11C249.751 164.582 249.633 164.054 249.34 163.526C248.165 161.59 247.048 161.003 244.992 161.355C243.464 161.59 241.819 163.232 241.761 165.051C241.643 168.63 241.819 172.267 241.819 175.846C241.819 176.785 241.878 177.723 241.761 178.662C241.526 180.539 241.702 182.065 242.524 183.531C244.816 183.59 247.225 183.883 249.81 183.297Z" fill="black"/>
<path d="M152.811 4.24105C151.93 3.4197 151.166 2.71568 150.461 2.07033C148.052 1.36631 146.289 2.01166 144.644 4.24105C144.644 7.64381 144.644 11.4572 144.644 15.2707C144.644 15.9747 144.762 16.6787 144.586 17.3241C144.468 17.7347 143.881 18.0281 143.293 18.4974C143.117 17.8521 142.941 17.4414 142.941 17.0894C142.941 13.3933 142.999 9.63853 142.882 5.94243C142.764 3.30236 146.289 -0.276403 148.992 0.0169383C151.342 0.310279 153.633 1.95299 154.162 4.35839C154.456 5.64909 154.632 6.99846 154.691 8.34783C154.75 10.9879 154.691 13.628 154.75 16.268C154.75 17.1481 154.808 18.0281 153.868 18.6148C149.168 19.0841 148.052 19.0254 146.583 17.9107C148.228 15.74 150.989 18.0868 152.87 16.3267C152.811 12.4546 152.811 8.46516 152.811 4.24105Z" fill="black"/>
<path d="M62.0983 94.4137C63.0971 94.4137 64.0959 94.4137 65.0359 94.4137C75.4349 94.4137 85.7752 94.4137 96.1742 94.4137C97.173 94.4137 98.1718 94.531 99.1118 94.2964C100.228 94.0617 100.933 94.4724 101.756 95.235C101.756 96.8191 101.756 98.4618 101.756 100.281C101.286 100.281 100.816 100.339 100.463 100.339C99.4643 98.8725 100.992 97.0538 99.3468 95.8217C87.479 95.8217 75.6112 95.8217 63.5084 95.8217C63.3321 96.5257 63.0971 97.1711 63.0971 97.8164C63.0384 100.163 63.0971 102.51 63.0971 104.857C63.0971 105.443 62.8034 106.089 62.5096 107.086C61.9221 106.382 61.4521 106.03 61.4521 105.678C61.3933 102.275 61.4521 98.8725 61.5108 95.4111C61.3933 95.235 61.6871 95.0004 62.0983 94.4137Z" fill="black"/>
<path d="M101.756 91.1289C101.756 91.6569 101.756 92.0089 101.756 92.3609C99.5817 92.8303 67.7971 92.9476 61.3932 92.5956C61.3345 92.1849 61.2757 91.7743 61.1582 91.1289C74.7298 91.1289 88.1251 91.1289 101.756 91.1289Z" fill="black"/>
<path d="M235.415 94.5901C235.885 95.7048 236.12 96.7021 235.944 97.9342C235.709 99.8115 236.12 101.806 236.238 103.742C236.297 104.857 236.238 105.913 235.298 106.793C234.299 106.382 234.064 105.502 234.064 104.446C234.064 102.393 234.005 100.34 234.24 98.2862C234.358 97.2888 234.123 96.5848 233.3 95.7048C229.188 95.7048 224.899 95.7048 220.61 95.7048C216.38 95.7048 212.209 95.7048 207.978 95.7048C203.748 95.7048 199.577 95.7048 195.347 95.6461C195.347 95.4114 195.288 95.1181 195.288 94.8834C195.699 94.7661 196.052 94.5314 196.463 94.5314C199.988 94.4727 203.513 94.4141 207.038 94.4141C215.851 94.4141 224.664 94.4141 233.477 94.4141C234.064 94.4141 234.71 94.5314 235.415 94.5901Z" fill="black"/>
<path d="M180.365 185.936C179.719 185.174 179.366 184.998 179.366 184.822C179.366 165.285 179.366 145.807 179.366 126.271C179.366 126.095 179.66 125.86 180.071 125.391C180.306 126.036 180.541 126.447 180.541 126.799C180.6 127.796 180.541 128.735 180.541 129.732C180.541 147.509 180.541 165.285 180.541 183.003C180.6 183.766 180.482 184.528 180.365 185.936Z" fill="black"/>
<path d="M0.703125 118.234C1.23189 118.116 1.64315 117.882 2.05441 117.882C14.921 117.412 57.4571 117.764 59.6897 118.41C59.3959 118.703 59.1609 119.114 58.9259 119.172C58.1621 119.29 57.3396 119.29 56.5758 119.29C40.2429 119.29 23.8512 119.29 7.5183 119.29C5.87326 119.29 4.22822 119.407 2.52442 119.466C1.7019 119.466 1.05563 119.348 0.703125 118.234Z" fill="black"/>
<path d="M47.4107 145.573C47.4107 148.741 47.4107 151.616 47.4107 154.549C49.3495 155.605 52.6983 155.781 55.3421 154.725C55.3421 153.082 55.3421 151.381 55.3421 149.621C55.3421 147.978 55.4009 146.277 55.2834 144.634C55.2246 143.285 54.4021 142.287 53.2858 141.583C51.4058 140.997 49.702 141.525 48.1157 142.522C47.2344 141.349 47.8807 140.645 48.7032 140.293C52.8158 138.415 56.7522 140.879 56.9872 144.986C57.1634 148.272 57.1047 151.616 57.0459 154.96C57.0459 156.368 56.6347 156.602 54.8134 156.778C52.052 157.072 49.2907 157.482 46.5294 156.602C46.3531 156.544 46.2356 156.426 45.7656 156.133C45.7656 153.082 45.7656 149.914 45.7656 146.688C45.7656 146.101 45.8831 145.573 45.9419 144.693C46.7644 145.221 47.1757 145.455 47.4107 145.573Z" fill="black"/>
<path d="M236.238 91.6564C235.768 92.7711 235.004 92.7124 234.182 92.7124C231.714 92.7124 229.305 92.7124 226.838 92.7124C218.26 92.7124 209.624 92.7124 201.046 92.7711C199.753 92.7711 198.578 92.6538 197.403 91.6564C198.108 90.8351 198.931 91.0697 199.577 91.0697C210.446 91.0697 221.256 91.0697 232.125 91.0697C233.007 91.0697 233.888 90.9524 234.769 91.0697C235.298 91.0697 235.768 91.4217 236.238 91.6564Z" fill="black"/>
<path d="M243.817 141.935C242.23 142.991 241.584 144.751 241.702 146.981C241.819 148.858 241.643 150.677 241.76 152.554C241.819 153.493 242.054 154.373 242.289 155.429C244.933 155.37 247.283 155.781 249.692 155.136C249.868 151.615 249.986 148.33 250.162 145.045C250.162 144.927 250.456 144.81 250.749 144.517C251.043 144.986 251.513 145.514 251.454 145.925C251.161 148.858 251.631 151.85 251.454 154.784C251.396 155.37 251.102 155.898 250.867 156.602C247.459 157.717 243.993 157.072 240.35 156.778C240.35 152.378 240.292 148.389 240.35 144.399C240.409 142.463 242.348 140.175 244.287 139.823C246.343 139.412 248.341 139.647 249.692 141.877C249.457 142.111 249.222 142.346 248.869 142.639C247.577 141.759 246.108 140.938 243.817 141.935Z" fill="black"/>
<path d="M266.906 156.72C263.792 156.896 261.031 157.072 258.269 157.19C257.799 157.19 257.271 157.131 256.859 156.896C256.096 156.427 256.154 155.84 256.859 155.312C259.679 155.371 262.558 155.84 265.555 155.078C265.555 151.733 265.613 148.624 265.496 145.515C265.437 144.107 264.791 143.285 263.146 141.643C260.678 140.88 258.798 141.643 257.623 144.048C257.447 146.336 257.271 148.624 257.036 150.912C257.036 151.029 256.742 151.088 256.566 151.205C254.921 148.037 255.449 143.461 257.741 141.232C259.503 139.53 261.501 139.237 263.616 140.235C265.613 141.115 266.847 142.581 266.847 144.928C266.906 148.8 266.906 152.555 266.906 156.72Z" fill="black"/>
<path d="M40.3601 150.912C40.2426 150.501 40.0663 150.091 40.0076 149.68C39.9488 148.8 39.9488 147.92 40.0076 147.04C40.2426 144.693 39.4201 142.874 37.305 141.525C36.365 141.525 35.3074 141.525 34.1324 141.525C33.4274 142.229 32.7224 142.992 32.0174 143.754C32.0174 147.45 32.0174 151.147 32.0174 154.96C35.0137 156.192 38.1863 154.843 41.2414 155.781C41.0063 157.072 40.1251 157.189 39.2438 157.131C36.5412 157.072 33.7799 156.896 30.9598 156.779C30.7248 156.251 30.3136 155.723 30.3136 155.195C30.3136 151.499 29.7848 147.802 30.6661 144.165C31.3123 141.408 33.7799 139.53 36.3062 139.765C39.2438 140.058 41.3001 142.229 41.3001 145.162C41.3001 147.04 41.5939 148.976 41.0651 150.853C40.8301 150.853 40.5951 150.853 40.3601 150.912Z" fill="black"/>
<path d="M237.53 118.526C238.412 118.116 238.882 117.705 239.293 117.705C240.644 117.705 241.995 117.881 243.347 117.881C257.506 117.881 271.724 117.881 285.883 117.881C286.529 117.881 287.175 117.998 287.88 118.057C287.998 119.406 287.117 119.465 286.412 119.465C271.371 119.406 256.331 119.289 241.232 119.23C240.585 119.23 239.88 119.465 239.234 119.406C238.823 119.348 238.353 118.996 237.53 118.526Z" fill="black"/>
<path d="M116.443 154.667C116.443 153.904 116.443 153.2 116.443 152.555C116.443 144.341 116.502 136.186 116.502 127.973C116.502 127.034 116.326 125.978 117.971 125.685C118.088 126.33 118.323 126.917 118.323 127.562C118.323 132.842 118.323 138.122 118.382 143.344C118.382 145.749 118.676 148.155 118.793 150.619C118.852 151.675 118.911 152.789 118.793 153.845C118.558 154.843 117.853 155.253 116.443 154.667Z" fill="black"/>
<path d="M85.3638 66.8983C84.6001 68.365 83.6013 68.717 82.3088 68.6584C81.4275 68.5997 80.7812 68.4237 80.5462 67.2503C81.4862 66.957 82.3087 66.7223 83.2488 66.4877C83.895 64.4929 83.6013 62.5569 83.425 60.6795C83.3075 59.6235 82.485 59.0368 81.4862 58.8021C79.2537 60.3275 78.7837 62.6742 79.9587 67.485C79.1949 67.3677 78.5486 67.2503 78.1374 67.1917C78.0199 65.1383 77.7261 63.4369 77.8436 61.7355C78.0199 59.5061 78.9599 57.6287 81.4275 56.9834C84.6001 58.0394 85.3638 59.0368 85.3638 62.2049C85.4226 63.8476 85.3638 65.549 85.3638 66.8983Z" fill="black"/>
<path d="M215.205 67.133C216.028 66.957 216.85 66.781 217.731 66.5463C218.436 64.4929 218.26 62.4395 217.966 60.4448C217.849 59.7408 216.909 59.2128 216.38 58.6261C214.089 59.3888 213.971 61.0315 214.03 62.7329C214.089 64.2583 214.147 65.7836 214.265 67.6023C213.56 67.3677 212.914 67.1917 212.444 67.0743C212.444 65.197 212.502 63.6716 212.444 62.1462C212.267 59.9168 213.09 58.6261 215.792 56.9834C218.965 57.9221 219.846 58.9781 219.846 62.0875C219.846 63.7302 219.846 65.4316 219.846 66.8397C219.083 68.5997 217.731 68.717 216.321 68.5997C215.91 68.5997 215.91 68.541 215.205 67.133Z" fill="black"/>
<path d="M179.601 98.521C178.309 98.5797 178.132 97.817 178.132 96.8196C178.132 95.0009 178.132 93.1235 178.132 91.3048C178.132 89.4861 178.132 87.6087 178.132 85.79C178.132 84.91 178.074 84.03 179.249 83.502C179.484 83.9713 179.954 84.4406 179.954 84.9687C180.012 89.2514 179.954 93.5342 179.954 97.817C179.895 97.993 179.719 98.2277 179.601 98.521Z" fill="black"/>
<path d="M128.077 98.6384C127.665 97.0543 127.43 86.67 127.724 84.6166C127.783 84.2646 128.077 83.9713 128.312 83.502C129.252 84.206 129.428 85.0273 129.428 85.966C129.428 89.5448 129.428 93.1822 129.428 96.761C129.369 97.5823 129.252 98.2863 128.077 98.6384Z" fill="black"/>
<path d="M138.064 84.0303C138.357 84.0303 138.71 84.0303 139.062 84.0303C139.356 85.321 139.65 96.5266 139.356 97.7C139.297 98.052 138.886 98.2867 138.475 98.756C138.122 98.1107 137.652 97.6413 137.652 97.172C137.652 92.8892 137.711 88.6064 137.77 84.3236C137.77 84.2649 137.887 84.2063 138.064 84.0303Z" fill="black"/>
<path d="M158.569 83.3848C159.215 84.2648 159.802 84.6755 159.802 85.0275C159.744 88.1956 159.626 91.305 159.509 94.4731C159.509 95.2357 159.744 95.9984 159.861 96.7611C159.979 97.7585 159.685 98.4625 158.51 98.5212C158.04 96.5264 157.981 86.6115 158.569 83.3848Z" fill="black"/>
<path d="M116.502 173.792C117.148 173.733 117.5 173.675 117.794 173.675C117.97 173.851 118.205 174.027 118.205 174.144C118.382 175.846 118.969 177.723 118.499 179.248C117.912 181.243 119.146 183.531 117.324 185.526C116.972 184.88 116.502 184.411 116.502 183.942C116.443 180.656 116.502 177.371 116.502 173.792Z" fill="black"/>
<path d="M117.618 170.448C117.09 169.744 116.502 169.333 116.502 168.864C116.443 165.461 116.443 162.117 116.443 158.538C117.09 158.48 117.56 158.421 117.912 158.421C118.088 158.714 118.265 158.89 118.265 159.066C118.323 160.885 118.323 162.762 118.382 164.581C118.441 165.52 118.558 166.517 118.676 167.456C118.735 168.453 118.793 168.453 117.618 170.448Z" fill="black"/>
<path d="M168.321 83.4434C170.142 84.4407 169.907 85.8488 169.731 87.3155C169.261 90.7769 169.143 94.2383 169.848 97.8171C169.437 98.0517 169.026 98.3451 168.497 98.6384C167.968 96.3504 167.909 87.9608 168.321 83.4434Z" fill="black"/>
<path d="M118.44 98.6969C118.029 98.4622 117.735 98.3449 117.735 98.2862C117.735 93.4167 117.735 88.6059 117.735 83.6191C118.793 83.8538 118.91 84.4992 118.91 85.3205C118.91 88.7233 118.91 92.126 118.852 95.5288C118.852 96.4675 119.204 97.5822 118.44 98.6969Z" fill="black"/>
<path d="M148.875 98.9312C148.463 98.3445 148.17 98.1685 148.17 97.9338C148.052 93.475 147.993 89.0162 147.935 84.5575C147.935 84.3815 148.111 84.2055 148.287 84.0881C148.405 83.9708 148.64 83.9708 148.875 83.9121C148.992 84.0881 149.286 84.3228 149.286 84.4988C149.638 88.1362 149.403 96.7605 148.875 98.9312Z" fill="black"/>
</svg>
