<svg width="349" height="200" viewBox="0 0 349 200" fill="none" xmlns="http://www.w3.org/2000/svg">
<path d="M0.470703 193.991C3.9685 193.991 7.09811 193.991 10.4732 193.991C10.4732 171.367 10.4732 149.172 10.4732 126.609C10.105 126.18 9.5527 125.506 8.87769 124.709C9.49133 124.157 10.105 123.666 10.9641 122.869C10.9641 120.662 10.9641 118.271 10.9641 115.88C11.2096 115.88 11.455 115.88 11.7618 115.818C13.0505 118.21 11.8232 120.969 12.3755 123.421C15.0142 124.218 42.9352 124.157 45.6352 123.36C45.6352 120.969 45.6352 118.455 45.6352 115.757C47.5989 117.106 47.5989 117.106 47.2921 123.115C47.783 123.544 48.2739 124.034 48.8876 124.647C48.3353 125.383 47.8444 126.119 47.5375 126.548C47.5375 149.05 47.5375 171.306 47.5375 193.746C49.808 193.746 51.8944 193.746 54.2877 193.746C54.2877 191.661 54.2877 189.883 54.2877 188.105C54.2877 186.756 54.2263 185.469 54.349 184.12C54.5945 179.399 57.7241 176.395 62.2037 176.456C66.4993 176.517 69.6902 179.828 69.813 184.427C69.8743 187.37 69.813 190.313 69.813 193.562C73.0039 194.42 76.0722 193.93 79.3245 193.93C79.5086 193.01 79.6927 192.336 79.6927 191.661C79.7541 189.209 79.6313 186.756 79.7541 184.304C79.9382 180.38 82.0246 177.56 85.2156 176.701C88.7133 175.72 91.9043 177.008 94.1748 180.257C94.543 180.748 94.8498 181.3 95.3408 182.097C95.3408 185.653 95.3408 189.516 95.3408 193.685C98.5317 193.685 101.477 193.685 104.914 193.685C104.914 190.926 104.852 188.289 104.975 185.714C105.036 184.243 105.159 182.649 105.711 181.238C107.061 177.744 110.375 175.966 114.057 176.517C117.616 177.069 120.378 179.828 120.623 183.507C120.807 186.143 120.684 188.841 120.684 191.477C120.684 192.152 120.746 192.826 120.807 193.746C123.875 193.746 126.76 193.746 130.012 193.746C130.135 192.888 130.38 192.029 130.441 191.171C130.503 188.718 130.441 186.266 130.564 183.813C130.748 179.767 133.264 177.13 137.437 176.517C141.119 175.966 144.494 178.05 145.66 181.852C146.089 183.262 146.151 184.856 146.212 186.389C146.274 188.718 146.212 191.048 146.212 193.685C147.869 193.685 149.403 193.685 151.428 193.685C151.551 170.386 151.428 147.149 151.428 123.85C151.428 100.674 151.428 77.5597 151.428 54.3837C151.674 54.2611 151.858 54.1385 152.103 54.0771C152.533 54.445 153.085 54.7516 153.269 55.2421C153.453 55.6713 153.331 56.2231 153.331 56.7749C153.331 101.655 153.331 146.474 153.331 191.355C153.331 192.029 153.392 192.765 153.453 193.807C155.11 193.869 156.644 193.991 158.547 194.114C158.669 192.949 158.915 192.091 158.915 191.232C158.915 187.247 158.853 183.262 158.853 179.276C158.915 172.716 161.124 167.259 167.138 163.948C175.974 158.982 187.204 164.01 189.474 173.636C190.149 176.456 190.088 179.522 190.211 182.465C190.334 186.143 190.211 189.761 190.211 193.807C192.052 193.807 193.709 193.807 195.672 193.807C195.795 192.826 195.979 191.845 195.979 190.926C195.979 174.555 195.918 158.246 195.918 141.876C195.918 130.104 195.979 118.394 195.979 106.622C195.979 89.9447 195.979 73.3291 195.979 56.6523C195.979 55.8552 196.163 54.9968 196.225 54.0771C198.065 54.629 197.759 55.7326 197.759 56.7136C197.759 64.8681 197.82 73.0839 197.82 81.2384C197.82 100.245 197.82 119.252 197.82 138.197C197.82 156.039 197.759 173.942 197.697 191.784C197.697 192.458 197.881 193.133 198.004 193.93C199.6 193.93 200.95 193.93 202.545 193.93C202.668 193.133 202.913 192.52 202.913 191.845C202.975 189.577 202.791 187.37 202.913 185.101C203.097 181.484 204.447 178.479 208.007 177.069C213.1 174.985 218.5 178.602 218.807 184.365C218.991 187.431 218.807 190.497 218.807 193.869C221.998 194.237 224.943 194.053 228.257 194.053C228.38 192.826 228.502 191.845 228.564 190.864C228.625 188.596 228.502 186.389 228.564 184.12C228.687 180.257 231.264 177.376 235.068 176.701C238.873 176.027 242.248 177.805 243.598 181.545C244.15 183.016 244.273 184.733 244.335 186.327C244.457 188.718 244.396 191.171 244.396 193.869C247.464 193.869 250.348 193.869 253.601 193.869C253.723 192.888 253.908 191.845 253.969 190.742C254.092 188.412 253.969 186.021 254.153 183.691C254.46 179.583 257.405 176.763 261.517 176.579C265.444 176.395 268.574 178.786 269.371 182.771C269.74 184.549 269.678 186.45 269.74 188.228C269.801 189.945 269.74 191.661 269.74 193.685C272.931 194.42 275.876 193.93 279.067 194.053C279.251 193.194 279.497 192.52 279.497 191.845C279.558 189.27 279.435 186.756 279.558 184.181C279.681 180.38 282.135 177.376 285.572 176.701C289.438 175.904 293.058 177.744 294.531 181.361C294.899 182.158 294.899 183.139 294.961 184.059C295.022 185.592 295.022 187.124 295.022 188.657C295.022 190.19 295.022 191.723 295.022 193.133C297.17 194.298 298.397 194.42 301.465 193.562C301.465 171.428 301.465 149.233 301.465 126.671C301.097 126.241 300.483 125.567 299.87 124.77C300.545 124.218 301.097 123.666 301.956 122.931C301.956 120.723 301.956 118.332 301.956 115.941C302.202 115.941 302.447 115.941 302.754 115.88C304.165 118.271 302.815 121.03 303.368 123.482C306.006 124.279 333.927 124.279 336.627 123.421C336.627 121.03 336.627 118.516 336.627 115.818C338.591 117.167 338.591 117.167 338.284 123.176C338.775 123.605 339.266 124.096 339.88 124.709C339.327 125.444 338.836 126.18 338.407 126.732C338.407 149.05 338.407 171.183 338.407 193.562C341.721 194.788 345.218 193.439 348.532 194.42C348.409 195.953 347.366 195.831 346.507 195.831C342.15 195.831 337.732 195.769 333.375 195.769C322.268 195.769 311.161 195.831 300.054 195.831C289.929 195.831 279.865 195.708 269.74 195.708C259.246 195.708 248.753 195.769 238.198 195.769C226.662 195.769 215.125 195.647 203.588 195.647C190.518 195.647 177.447 195.769 164.438 195.769C153.392 195.769 142.408 195.647 131.362 195.647C117.371 195.647 103.38 195.769 89.4497 195.769C75.1517 195.769 60.9151 195.647 46.6171 195.647C32.135 195.647 17.6529 195.647 3.17076 195.708C2.18892 195.708 1.08435 196.137 0.470703 193.991ZM12.3141 125.812C12.3141 133.476 12.3141 140.956 12.3141 148.498C12.3141 156.162 12.2528 163.826 12.3141 171.49C12.3755 178.97 12.0687 186.45 12.4368 193.869C14.4619 193.869 16.0574 193.869 18.021 193.869C18.021 191.539 18.021 189.393 18.021 187.308C18.0824 181.3 21.7029 176.947 27.5326 175.966C32.8713 175.046 39.1306 179.706 39.4987 184.856C39.6828 187.676 39.8056 190.497 39.9283 193.501C41.6465 194.482 43.4261 194.298 45.267 193.685C45.267 171.061 45.267 148.559 45.267 125.874C34.2214 125.812 23.4825 125.812 12.3141 125.812ZM303.429 194.237C305.515 193.685 307.418 194.788 309.013 193.256C309.013 191.232 308.952 189.332 309.013 187.37C309.074 184.304 309.811 181.484 312.081 179.338C315.272 176.272 318.954 174.985 323.25 176.517C327.361 177.989 330.184 180.748 330.552 185.408C330.798 188.105 330.798 190.864 330.92 193.869C332.761 193.869 334.48 193.869 336.505 193.869C336.505 188.044 336.505 182.465 336.505 176.885C336.505 171.183 336.505 165.481 336.505 159.718C336.505 154.077 336.566 148.498 336.505 142.857C336.443 137.216 336.811 131.514 336.259 125.935C325.152 125.935 314.352 125.935 303.49 125.935C303.429 148.62 303.429 171.122 303.429 194.237ZM187.94 193.869C188.124 193.317 188.37 192.949 188.37 192.52C188.431 187.431 188.615 182.281 188.37 177.192C188.063 168.302 180.761 164.071 175.422 163.642C167.69 163.029 161.001 169.344 160.694 177.498C160.572 182.219 160.633 186.879 160.694 191.6C160.694 192.275 160.817 192.949 160.94 193.807C170.022 193.869 178.858 193.869 187.94 193.869ZM38.1487 193.93C38.1487 191.294 38.2101 188.964 38.1487 186.695C38.026 182.342 35.0805 179.092 30.6622 177.866C27.7781 177.069 22.8075 178.725 20.8438 182.465C18.9415 186.205 20.1075 190.006 19.8006 193.93C25.9371 193.93 31.7054 193.93 38.1487 193.93ZM310.977 194.053C317.175 193.93 323.004 194.298 329.202 193.807C329.202 191.478 329.079 189.454 329.202 187.431C329.325 185.04 328.527 182.955 327.054 181.238C324.968 178.663 322.145 177.314 318.709 177.805C314.781 178.357 311.897 180.625 311.038 184.365C310.425 187.308 310.977 190.558 310.977 194.053ZM106.386 193.746C110.682 194.359 114.671 193.991 119.089 194.053C119.089 191.048 119.15 188.412 119.089 185.837C118.966 180.135 116.266 177.805 110.682 178.479C107.921 179.767 106.571 181.974 106.386 184.733C106.264 187.554 106.386 190.435 106.386 193.746ZM93.7453 194.114C93.7453 191.232 93.6225 188.78 93.8066 186.389C94.0521 182.71 92.6407 180.073 89.327 178.418C87.9156 178.418 86.5042 178.418 85.3383 178.418C83.1291 179.767 81.4109 181.3 81.2882 183.752C81.1655 187.002 81.2268 190.251 81.2268 193.93C85.3383 194.237 89.2043 193.991 93.7453 194.114ZM131.976 193.869C136.271 194.114 140.198 194.298 144.617 193.685C144.494 189.822 145.169 186.143 144.064 182.587C143.144 179.583 140.935 178.234 137.867 178.173C135.167 178.111 132.221 181.054 132.037 183.2C131.791 186.695 131.976 190.129 131.976 193.869ZM242.739 193.807C242.739 190.251 242.985 187.186 242.678 184.181C242.371 180.809 239.548 177.989 236.173 178.234C233.105 178.479 230.221 180.993 230.037 184.304C229.852 187.308 229.975 190.374 229.975 193.685C234.271 194.359 238.321 194.175 242.739 193.807ZM216.782 193.807C216.904 193.378 217.089 193.01 217.089 192.642C217.15 189.883 217.211 187.124 217.15 184.365C217.027 181.054 214.573 178.541 211.504 178.234C208.927 177.928 205.245 179.767 205 183.262C204.754 186.695 204.938 190.129 204.938 193.807C208.866 193.807 212.793 193.807 216.782 193.807ZM255.748 194.053C259.921 194.114 263.787 194.175 267.899 193.991C267.899 190.313 268.021 187.124 267.837 183.875C267.653 180.625 265.444 178.418 262.56 178.234C259.369 178.05 256.178 180.012 255.81 183.078C255.503 186.573 255.748 190.129 255.748 194.053ZM292.874 193.991C293.672 191.478 293.795 185.101 293.181 182.894C292.322 179.583 289.438 177.56 285.694 178.418C283.669 178.909 282.504 180.441 281.583 181.974C281.583 186.082 281.583 189.945 281.583 193.991C285.449 193.991 289.131 193.991 292.874 193.991ZM67.972 193.991C67.8493 190.006 68.3402 186.266 67.6038 182.587C67.1743 180.257 64.7197 178.418 62.3878 178.295C59.3196 178.05 57.4786 179.706 56.19 181.974C56.19 186.082 56.19 190.006 56.19 193.991C60.056 193.991 63.6765 193.991 67.972 193.991Z" fill="black"/>
<path d="M145.905 163.397C114.977 163.397 83.9265 163.397 52.8145 163.397C52.6304 163.397 52.4463 162.968 52.0781 162.539C53.06 162.048 53.9191 161.68 55.085 161.067C55.085 159.289 55.085 157.327 55.085 155.427C55.085 154.384 55.0236 153.403 55.085 152.361C55.2077 149.357 56.8646 147.395 59.3192 147.333C61.8965 147.211 63.8602 149.234 64.0443 152.3C64.1056 154.139 64.0443 155.978 64.1056 157.818C64.167 159.044 64.2897 160.209 64.4125 161.619C65.7625 161.619 66.9284 161.619 68.4012 161.619C68.4625 160.516 68.6466 159.535 68.6466 158.554C68.708 156.224 68.6466 153.832 68.7694 151.503C68.8921 149.357 70.058 148.008 71.9603 147.579C73.8013 147.149 75.5809 147.579 76.5013 149.234C77.2377 150.583 77.7286 152.238 77.8514 153.832C78.0968 156.408 77.9127 159.044 77.9127 162.048C79.5082 161.926 80.6128 161.803 82.1469 161.619C82.1469 159.841 82.1469 158.37 82.1469 156.837C82.1469 155.12 82.0855 153.342 82.2083 151.625C82.331 149.357 83.5583 148.008 85.6447 147.517C87.6084 147.088 89.572 147.947 90.4312 149.847C90.9834 151.012 91.1675 152.361 91.2289 153.649C91.3516 156.162 91.2903 158.737 91.2903 161.558C92.763 161.558 93.9903 161.558 95.6472 161.558C95.6472 158.492 95.5858 155.672 95.6472 152.851C95.6472 151.871 95.7085 150.767 96.0767 149.909C96.8745 148.13 98.8381 147.088 100.556 147.395C102.581 147.701 104.606 149.786 104.791 152.054C104.913 153.955 104.852 155.917 104.852 157.879C104.852 158.983 104.852 160.086 104.852 161.619C106.141 161.68 107.245 161.742 108.718 161.803C108.841 160.515 109.025 159.596 109.086 158.615C109.147 156.285 109.025 153.894 109.147 151.564C109.332 149.05 110.866 147.579 113.198 147.456C115.407 147.333 117.554 148.744 117.861 151.012C118.168 153.342 118.045 155.672 118.168 158.063C118.229 159.228 118.291 160.454 118.414 161.742C119.764 161.742 120.868 161.742 122.28 161.742C122.341 160.086 122.464 158.615 122.525 157.082C122.586 155.549 122.525 154.016 122.586 152.484C122.709 149.234 124.427 147.395 127.066 147.395C129.459 147.395 131.607 149.663 131.73 152.545C131.852 154.691 131.73 156.837 131.73 158.983C131.73 159.78 131.791 160.577 131.852 161.619C133.141 161.619 134.307 161.619 135.78 161.619C135.902 160.209 136.025 158.921 136.087 157.634C136.148 155.672 136.025 153.771 136.148 151.809C136.271 149.295 137.743 147.701 140.014 147.456C142.284 147.149 144.432 148.621 144.923 151.073C145.291 152.974 145.046 154.936 145.23 156.837C145.414 158.86 145.66 160.945 145.905 163.397ZM143.45 161.742C143.45 157.879 143.45 154.384 143.45 151.012C142.653 150.215 141.916 149.541 141.303 148.928C138.909 149.418 138.05 149.909 137.866 151.564C137.437 154.875 137.682 158.186 137.743 161.742C139.768 161.742 141.487 161.742 143.45 161.742ZM87.547 148.928C84.6015 149.357 83.7424 150.215 83.6197 152.913C83.5583 155.243 83.6197 157.573 83.681 159.902C83.681 160.515 84.1106 161.19 84.4174 161.987C86.197 161.803 87.8538 161.619 89.5107 161.496C89.5107 157.818 89.5107 154.568 89.5107 151.319C88.897 150.46 88.222 149.725 87.547 148.928ZM116.511 150.951C115.713 150.215 114.793 149.418 114.118 148.805C112.093 148.989 110.988 149.97 110.866 151.503C110.497 154.813 110.682 158.124 110.804 161.251C113.934 161.987 114.241 161.987 116.573 161.006C116.511 157.818 116.511 154.507 116.511 150.951ZM59.5646 148.56C57.2328 149.786 56.5578 151.257 56.6191 153.158C56.7419 155.917 56.435 158.737 56.7419 161.619C58.8896 161.742 60.6692 162.477 62.4488 161.129C62.4488 157.879 62.4488 154.63 62.4488 151.012C61.5897 150.276 60.6078 149.418 59.5646 148.56ZM102.888 161.619C102.888 157.818 102.888 154.507 102.888 151.012C102.52 150.644 102.213 150.092 101.722 149.725C101.293 149.357 100.74 149.05 100.25 148.805C98.0404 149.173 97.2427 150.583 97.1813 152.484C97.1199 154.016 97.1813 155.549 97.1813 157.082C97.2427 158.554 97.304 160.025 97.3654 161.619C99.3904 161.619 100.986 161.619 102.888 161.619ZM73.1876 148.621C72.3285 149.173 71.5308 149.663 70.5489 150.215C70.5489 154.016 70.5489 157.695 70.5489 161.803C72.4513 161.496 74.2922 162.6 76.0104 160.761C76.0104 158.063 76.0104 155.243 76.0104 152.422C76.0104 150.767 75.0286 149.663 73.1876 148.621ZM127.741 148.56C126.575 149.173 125.593 149.725 124.673 150.276C124.673 154.262 124.673 157.879 124.673 161.558C126.575 161.864 128.232 162.355 129.95 161.067C129.95 157.879 129.95 154.63 129.95 151.135C129.398 150.522 128.784 149.786 127.741 148.56Z" fill="black"/>
<path d="M203.343 163.335C203.588 160.576 203.895 158.369 204.079 156.1C204.202 154.568 204.018 153.035 204.141 151.502C204.386 149.111 206.35 147.333 208.682 147.394C210.829 147.394 212.732 148.988 212.977 151.318C213.223 153.648 213.161 155.978 213.223 158.369C213.223 159.35 213.223 160.331 213.223 161.618C214.757 161.618 215.861 161.618 217.334 161.618C217.395 158.614 217.395 155.671 217.641 152.728C217.702 151.563 218.07 150.337 218.623 149.295C219.543 147.823 221.077 147.087 222.857 147.455C224.636 147.823 226.17 148.804 226.416 150.766C226.723 153.157 226.723 155.61 226.784 158.062C226.845 159.166 226.784 160.208 226.784 161.496C228.134 161.68 229.116 161.741 230.466 161.925C230.711 160.821 231.018 159.902 231.08 158.982C231.141 156.959 231.08 154.874 231.141 152.851C231.202 149.54 232.982 147.333 235.621 147.333C238.443 147.333 240.223 149.601 240.162 153.035C240.1 155.794 240.162 158.492 240.162 161.557C241.573 161.68 242.678 161.741 244.15 161.864C244.334 160.515 244.58 159.472 244.58 158.43C244.641 156.284 244.519 154.138 244.641 151.992C244.764 149.356 246.789 147.455 249.121 147.394C251.576 147.394 253.478 149.111 253.662 151.808C253.785 154.261 253.662 156.713 253.662 159.166C253.662 159.84 253.723 160.515 253.785 161.557C255.135 161.557 256.362 161.557 258.019 161.557C258.019 159.534 258.08 157.633 258.08 155.732C258.08 154.69 258.08 153.709 258.08 152.667C258.142 150.092 259.308 148.314 261.333 147.578C263.173 146.965 264.524 147.455 267.039 149.969C267.162 153.464 267.285 157.449 267.408 161.618C268.758 161.68 269.801 161.741 271.212 161.802C271.335 160.699 271.519 159.84 271.58 158.982C271.642 156.713 271.519 154.506 271.642 152.238C271.826 149.233 273.79 147.271 276.428 147.333C278.883 147.394 280.662 149.356 280.785 152.299C280.908 155.242 280.785 158.185 280.785 161.128C282.626 161.802 284.16 162.232 285.817 160.576C285.633 158.185 285.51 155.549 285.203 152.973C284.897 150.521 286.553 147.885 288.885 147.394C291.094 146.904 293.304 148.252 293.979 150.644C294.285 151.808 294.347 153.035 294.408 154.261C294.47 156.407 294.408 158.553 294.408 161.251C294.776 161.557 295.451 162.17 296.249 162.845C295.697 163.029 295.206 163.396 294.654 163.396C290.542 163.458 286.492 163.458 282.381 163.458C260.228 163.458 238.075 163.458 215.923 163.458C212.425 163.458 208.988 163.458 205.491 163.396C204.631 163.519 203.895 163.396 203.343 163.335ZM292.383 161.618C292.506 158.492 292.813 155.549 292.69 152.606C292.567 150.214 291.095 149.111 288.701 149.049C284.897 152.36 286.553 156.652 286.369 160.576C288.149 162.415 290.051 161.864 292.383 161.618ZM232.307 151.011C232.798 155.119 232.062 158.308 232.798 161.434C236.05 162.17 236.296 162.17 238.321 161.128C238.321 157.756 238.321 154.322 238.321 150.644C237.4 149.969 236.48 149.356 235.314 148.498C234.148 149.479 233.166 150.276 232.307 151.011ZM246.237 151.625C246.237 155.181 246.237 158.246 246.237 161.312C248.139 161.986 249.857 162.354 251.882 161.251C251.882 158.185 251.944 154.997 251.821 151.87C251.76 150.337 250.839 149.233 249.244 148.866C247.403 148.988 246.85 150.521 246.237 151.625ZM211.32 161.557C211.32 157.878 211.32 154.506 211.32 150.766C210.584 150.153 209.725 149.356 208.62 148.436C207.393 149.54 206.411 150.46 205.736 151.134C205.736 154.874 205.736 158.062 205.736 161.618C207.577 161.557 209.234 161.557 211.32 161.557ZM261.885 148.804C261.026 149.847 260.167 150.95 259.369 151.992C259.553 152.054 259.676 152.115 259.86 152.176C259.86 155.242 259.86 158.369 259.86 161.618C261.823 161.618 263.48 161.618 265.321 161.618C265.874 158.062 265.812 154.751 265.444 151.441C265.199 149.969 264.033 148.988 261.885 148.804ZM221.261 148.804C220.648 149.724 219.42 150.705 219.298 151.747C218.991 154.935 219.175 158.124 219.175 161.557C221.2 161.557 222.795 161.557 224.82 161.557C224.82 158.062 224.943 154.874 224.759 151.686C224.698 150.214 223.716 149.049 221.261 148.804ZM279.067 161.68C278.269 157.081 280.785 152.483 277.042 148.927C274.833 148.804 273.974 149.847 273.483 151.318C272.992 152.789 273.176 159.84 273.79 161.68C275.324 161.68 276.858 161.68 279.067 161.68Z" fill="black"/>
<path d="M72.2061 200C72.2674 197.854 73.372 198.038 74.4152 198.038C79.938 198.038 85.4609 198.099 90.9223 198.099C102.336 198.099 113.75 198.161 125.225 198.161C142.039 198.161 158.915 198.161 175.729 198.161C189.904 198.161 204.079 198.222 218.254 198.222C230.098 198.222 241.941 198.099 253.723 198.099C263.235 198.099 272.685 198.161 282.197 198.222C292.322 198.222 302.386 198.283 312.511 198.222C322.084 198.222 331.657 198.099 341.291 198.038C342.273 198.038 343.193 197.977 343.316 199.203C343.255 199.387 343.193 199.448 343.132 199.571C343.07 199.632 343.009 199.755 342.948 199.755C340.125 199.877 337.302 200 334.418 200C247.096 200 159.774 200 72.2061 200Z" fill="black"/>
<path d="M155.11 101.104C156.338 100.92 157.197 100.797 158.424 100.674C158.485 99.6321 158.67 98.5285 158.67 97.4249C158.67 92.7038 158.67 88.0441 158.67 83.3231C158.731 78.1116 162.842 74.8007 167.874 75.9043C170.942 76.5788 173.52 79.8896 173.581 83.3231C173.643 88.0441 173.581 92.7038 173.581 97.4249C173.581 98.4059 173.581 99.4482 173.581 100.858C174.747 100.674 175.483 100.49 176.404 100.307C176.404 94.6658 176.343 89.393 176.465 84.1202C176.527 82.526 176.772 80.8093 177.447 79.3991C178.981 76.2722 182.234 74.9847 185.731 75.843C188.616 76.5175 190.763 79.3378 190.825 82.6487C190.886 88.4733 190.825 94.2366 190.825 100.061C191.929 100.552 192.788 100.92 194.261 101.533C193.341 102.023 192.85 102.575 192.297 102.575C186.284 102.636 180.27 102.575 174.256 102.575C168.856 102.575 163.456 102.575 158.056 102.575C156.951 102.575 155.847 102.882 155.11 101.104ZM171.617 81.545C170.574 79.9509 169.838 78.2342 167.813 77.7437C163.701 76.7014 160.265 79.2765 160.204 83.6297C160.142 87.7989 160.204 91.9681 160.204 96.1373C160.204 97.5475 160.204 98.9577 160.204 100.674C164.192 101.104 167.813 100.981 171.679 100.797C171.617 94.114 171.617 87.9828 171.617 81.545ZM189.291 100.184C189.291 94.0527 189.475 87.8602 189.229 81.6677C189.168 79.5831 187.45 78.0503 185.179 77.6211C182.356 77.1306 180.147 77.9276 178.429 80.9319C178.429 87.0631 178.429 93.6235 178.429 100.245C180.699 101.104 186.836 101.104 189.291 100.184Z" fill="black"/>
<path d="M155.11 143.102C156.338 142.796 157.135 142.612 158.301 142.305C158.424 141.569 158.608 140.711 158.608 139.853C158.67 135.377 158.67 130.901 158.67 126.364C158.608 121.152 161.492 117.596 165.911 117.658C170.574 117.719 173.581 121.091 173.581 126.425C173.581 130.717 173.581 135.009 173.581 139.301C173.581 140.282 173.581 141.324 173.581 142.734C174.747 142.489 175.483 142.366 176.404 142.182C176.404 137.461 176.404 133.108 176.404 128.694C176.404 127.038 176.404 125.444 176.588 123.789C177.018 120.785 178.736 118.761 181.681 117.964C184.872 117.045 187.756 117.903 189.475 120.539C190.272 121.704 190.702 123.36 190.763 124.77C190.947 129.859 190.825 134.948 190.825 140.098C190.825 140.711 190.886 141.263 190.947 141.876C191.929 142.428 192.85 142.918 194.077 143.531C193.402 144.022 193.095 144.39 192.788 144.39C180.454 144.39 168.181 144.328 155.847 144.206C155.724 144.206 155.601 143.777 155.11 143.102ZM160.204 142.366C164.254 142.796 167.936 142.857 171.802 142.366C171.802 136.787 171.679 131.575 171.863 126.364C171.924 123.114 170.697 120.907 167.936 119.436C166.586 119.436 165.236 119.436 164.07 119.436C161.431 121.398 160.265 122.869 160.204 124.831C160.142 130.533 160.204 136.235 160.204 142.366ZM189.229 142.428C189.352 141.324 189.413 140.772 189.413 140.159C189.413 134.886 189.413 129.552 189.352 124.279C189.352 123.421 188.861 122.501 188.37 121.766C186.775 119.252 184.32 119.007 181.374 119.681C180.577 120.355 179.595 121.275 178.797 122.011C177.938 125.751 177.999 140.527 178.797 142.489C182.172 142.428 185.547 142.428 189.229 142.428Z" fill="black"/>
<path d="M164.99 11.4658C171.433 11.4658 177.57 11.4658 184.074 11.4658C189.229 22.8086 193.218 34.6418 198.495 46.5976C197.022 46.7816 195.918 47.0881 194.813 47.0881C185.056 47.1494 175.238 47.0881 165.481 47.0881C162.228 47.0881 158.976 47.3334 155.724 47.3334C154.19 47.3334 152.655 46.9655 150.814 46.7816C155.601 34.7031 160.326 23.0538 164.99 11.4658ZM195.672 45.2488C195.549 44.6357 195.488 44.1452 195.304 43.6547C191.561 34.09 187.756 24.5866 183.951 15.0219C183.645 14.2862 183.031 13.7344 182.663 13.1826C177.14 13.1826 171.863 13.1826 166.094 13.1826C161.86 23.6669 157.626 34.2126 153.208 45.1875C167.628 45.2488 181.558 45.2488 195.672 45.2488Z" fill="black"/>
<path d="M313.064 85.7146C312.143 83.1395 312.143 81.5454 313.493 79.8287C313.923 81.3615 314.291 82.7103 314.659 84.1205C316.009 84.1205 317.114 84.1205 318.525 84.1205C318.832 82.7103 319.2 81.3615 319.568 79.7061C321.409 80.6257 320.121 82.4651 321.287 83.814C322.084 83.9366 323.189 84.1205 324.355 84.3658C326.871 83.814 324.968 80.9323 326.809 79.9513C327.853 82.0972 327.975 83.9979 326.503 85.5307C331.044 94.7888 335.278 103.986 338.039 113.734C334.787 114.838 304.288 114.777 301.404 113.612C305.332 104.415 308.4 94.8501 313.064 85.7146ZM303.859 112.079C307.357 113.121 333.13 113.06 335.83 112.018C333.375 103.679 329.571 95.8924 326.073 88.1058C321.655 88.1058 317.727 88.1058 313.432 88.1058C310.241 96.199 307.05 104.108 303.859 112.079Z" fill="black"/>
<path d="M10.4736 113.488C14.4623 104.23 17.4692 94.7267 22.0716 85.5912C21.4579 84.0584 20.8443 82.0965 22.4398 79.9505C22.8693 81.3607 23.2375 82.7709 23.6671 84.1811C25.0785 84.1811 26.1217 84.1811 27.5331 84.1811C27.8399 82.7709 28.2081 81.3607 28.5763 79.7666C30.4172 80.7476 29.0058 82.5869 30.4172 83.9358C31.0309 84.0584 32.1354 84.2424 32.7491 84.365C35.5719 83.8132 34.5287 81.4833 35.265 80.0118C36.9832 81.8512 36.9219 83.5066 35.6332 85.7139C40.2356 94.9107 44.1629 104.169 47.1084 113.917C43.3038 114.898 12.9896 114.653 10.4736 113.488ZM35.0809 88.1664C30.4786 88.1664 26.5512 88.1664 22.4398 88.1664C19.1874 96.2595 16.0578 104.169 12.8669 112.139C16.2419 113.12 41.9538 113.059 44.8379 112.139C42.1379 103.862 38.7015 95.953 35.0809 88.1664Z" fill="black"/>
<path d="M199.17 120.295C199.477 118.639 200.459 118.823 201.379 118.823C211.382 118.823 221.384 118.823 231.386 118.823C241.205 118.823 250.962 118.823 260.78 118.823C272.624 118.823 284.467 118.823 296.31 118.885C297.354 118.885 298.765 118.333 299.256 119.804C299.133 120.111 299.133 120.233 299.072 120.295C299.011 120.356 298.888 120.479 298.826 120.479C266.058 120.54 233.289 120.601 200.52 120.601C200.152 120.663 199.784 120.479 199.17 120.295Z" fill="black"/>
<path d="M49.8076 167.32C83.3742 167.32 116.695 167.32 150.201 167.32C149.894 168.792 149.096 168.853 148.114 168.853C143.634 168.792 139.155 168.853 134.675 168.853C107.245 168.853 79.7537 168.853 52.3236 168.853C51.3417 168.792 50.1758 169.098 49.8076 167.32Z" fill="black"/>
<path d="M149.894 120.662C117.002 120.662 84.1107 120.662 51.2192 120.662C50.7896 120.662 50.3601 120.355 49.9305 120.171C49.9305 119.926 49.8691 119.742 49.8691 119.497C50.4828 119.252 51.1578 118.884 51.7714 118.884C55.6374 118.822 59.5034 118.884 63.3694 118.884C65.8854 118.884 68.4627 118.884 70.9786 118.884C94.7268 118.884 118.536 118.884 142.285 118.884C144.248 118.884 146.151 118.822 148.114 118.884C148.789 118.884 149.464 119.252 150.078 119.497C150.017 119.865 149.955 120.294 149.894 120.662Z" fill="black"/>
<path d="M198.925 167.32C232.553 167.32 265.812 167.32 299.256 167.32C299.195 167.749 299.195 168.179 299.134 168.792C293.611 168.792 288.272 168.792 282.933 168.792C255.994 168.792 229.055 168.792 202.177 168.792C201.134 168.73 199.845 169.282 198.925 167.32Z" fill="black"/>
<path d="M150.324 138.933C116.635 138.933 83.3136 138.933 50.0539 138.933C49.9312 138.749 49.8698 138.565 49.7471 138.381C50.1766 138.075 50.6062 137.462 51.0357 137.462C60.7927 137.462 70.5498 137.584 80.3068 137.584C102.459 137.584 124.551 137.584 146.704 137.646C147.747 137.646 149.281 136.481 150.324 138.933Z" fill="black"/>
<path d="M299.072 137.523C299.134 137.891 299.195 138.259 299.256 138.627C296.495 139.301 201.564 139.24 198.986 138.443C199.477 138.014 199.845 137.4 200.214 137.4C210.523 137.4 220.771 137.523 231.08 137.523C235.744 137.523 240.469 137.4 245.133 137.4C248.262 137.4 251.453 137.523 254.583 137.523C267.838 137.523 281.092 137.523 294.347 137.523C295.881 137.523 297.293 137.523 299.072 137.523Z" fill="black"/>
<path d="M185.731 49.1109C186.59 50.7663 186.835 65.1134 186.099 68.9147C184.197 69.8344 169.899 70.2023 163.578 69.4052C163.394 69.0986 162.903 68.6695 162.903 68.2403C162.842 62.0478 162.842 55.7939 162.842 49.6014C162.842 49.4175 163.271 49.2335 163.64 48.9883C165.051 50.8276 164.315 52.9123 164.376 54.8129C164.499 56.8362 164.376 58.9208 164.376 60.9441C164.376 62.9674 164.376 64.9907 164.376 67.014C166.462 68.6695 168.794 67.7498 170.942 67.9337C173.274 68.1176 175.606 67.995 177.999 67.8724C180.147 67.7498 182.417 68.4855 184.565 67.3206C184.749 61.1894 184.995 55.2421 185.179 49.2948C185.179 49.2335 185.547 49.1722 185.731 49.1109Z" fill="black"/>
<path d="M5.56445 198.774C6.42356 198.467 6.97584 198.1 7.46676 198.1C26.3671 198.161 45.3289 198.284 64.2292 198.406C64.352 198.406 64.4133 198.897 64.5974 199.326C64.1065 199.571 63.7383 199.939 63.3088 199.939C44.347 199.939 25.3853 199.878 6.42356 199.816C6.30083 199.816 6.11674 199.387 5.56445 198.774Z" fill="black"/>
<path d="M183.399 57.8172C183.399 62.6609 179.349 66.6462 174.44 66.6462C169.899 66.6462 165.604 62.4156 165.604 57.8785C165.604 53.3414 170.022 48.9883 174.686 48.9883C179.227 48.9883 183.399 53.2188 183.399 57.8172ZM174.44 50.7663C171.188 50.3985 167.26 54.5677 167.444 58.1851C167.629 61.8025 171.004 64.9907 174.747 64.8681C178.306 64.7455 181.742 61.4346 181.804 58.1238C181.865 54.1998 178.367 50.705 174.44 50.7663Z" fill="black"/>
<path d="M165.603 0.613121C167.628 2.69773 165.972 5.45678 167.199 7.97057C167.997 8.03188 168.917 8.15451 170.39 8.33844C170.574 5.51809 170.697 3.00429 170.819 0C172.783 1.28755 172.231 2.75904 172.292 4.0466C172.353 5.33415 172.292 6.6217 172.292 8.09319C173.888 8.09319 175.054 8.09319 176.649 8.09319C176.894 5.51809 177.079 3.00429 177.385 0.0613121C179.104 1.41018 178.429 2.82036 178.551 3.98529C178.674 5.21153 178.551 6.37646 178.551 7.48007C180.147 8.58369 181.435 8.58369 182.847 6.80564C182.847 5.02759 182.847 2.88167 182.847 0.30656C184.32 2.08461 184.504 5.76334 183.583 9.50337C177.631 9.50337 171.617 9.50337 165.358 9.50337C164.928 6.37646 164.744 3.49479 165.603 0.613121Z" fill="black"/>
<path d="M190.334 50.0924C191.132 49.9085 191.868 49.6633 192.666 49.6019C198.189 49.3567 199.968 49.5406 201.38 50.399C201.011 51.9318 199.661 51.6866 198.68 51.6252C195.918 51.4413 192.973 52.4223 190.395 50.8895C190.395 50.6442 190.334 50.399 190.334 50.0924Z" fill="black"/>
<path d="M159.344 50.0304C158.976 52.3602 157.749 51.9311 156.828 51.9311C149.71 51.9311 149.158 51.8697 147.501 50.0304C151.551 49.172 155.294 50.6435 159.344 50.0304Z" fill="black"/>
<path d="M15.6279 169.896C16.3643 169.65 17.1007 169.344 18.0825 168.976C18.0825 164.562 18.0825 160.208 18.0825 155.855C18.0825 151.87 18.0212 147.885 18.0825 143.899C18.2053 136.603 24.8327 130.779 33.0555 133.66C36.0011 134.703 37.9034 137.339 39.6829 140.466C39.6829 149.54 39.6829 158.982 39.6829 168.547C40.6648 169.16 41.5239 169.65 42.6898 170.264C40.358 171.612 38.1488 170.877 36.0624 170.999C33.7306 171.183 31.3987 170.999 29.0055 170.999C26.735 170.999 24.5258 171.122 22.2553 170.999C19.9848 170.877 17.7757 171.429 15.6279 169.896ZM19.8007 169.283C26.06 169.283 31.8896 169.283 37.6579 169.283C37.9034 168.731 38.0875 168.486 38.0875 168.179C38.0875 159.718 38.3329 151.257 38.0261 142.796C37.842 138.136 33.5465 134.764 28.8827 134.58C24.2804 134.396 19.9235 138.688 19.8621 143.225C19.7394 148.253 19.8007 153.219 19.8007 158.246C19.7394 161.803 19.8007 165.359 19.8007 169.283Z" fill="black"/>
<path d="M330.613 140.22C330.613 149.54 330.613 159.043 330.613 168.608C331.595 169.16 332.454 169.65 333.252 170.141C333.252 170.325 333.191 170.57 333.191 170.754C330.307 171.306 327.3 171.06 324.354 171.122C321.409 171.183 318.463 171.122 315.456 171.122C312.511 171.122 309.504 171.244 306.558 170.877C306.558 170.631 306.497 170.386 306.497 170.141C307.233 169.773 307.97 169.405 309.013 168.915C309.013 167.688 309.013 166.401 309.013 165.052C309.013 158.124 309.013 151.134 308.952 144.206C308.89 138.994 312.449 134.028 317.972 133.108C321.777 132.434 325.029 133.537 327.607 136.358C328.711 137.461 329.509 138.749 330.613 140.22ZM310.793 169.282C316.99 169.282 322.881 169.282 328.773 169.282C328.957 168.547 329.141 168.117 329.141 167.627C329.141 159.656 329.141 151.686 329.202 143.777C329.202 141.569 328.282 139.853 327.054 138.197C325.029 135.377 320.795 134.089 317.543 135.132C313.431 136.419 310.915 139.362 310.854 143.225C310.731 147.087 310.793 151.011 310.793 154.874C310.793 159.472 310.793 164.194 310.793 169.282Z" fill="black"/>
<path d="M177.569 61.6796C173.458 60.0854 172.353 56.3454 174.747 53.709C176.219 54.9352 175.053 56.652 175.606 57.9395C176.097 59.2271 176.894 60.4533 177.569 61.6796Z" fill="black"/>
</svg>
