<svg width="140" height="201" viewBox="0 0 140 201" fill="none" xmlns="http://www.w3.org/2000/svg">
<path d="M28.3428 131.932C29.5573 132.419 29.1929 133.394 29.1929 134.308C29.1929 146.374 29.1929 158.501 29.1929 170.567C29.1929 177.148 29.1929 183.79 29.1929 190.372C29.1929 191.286 29.2537 192.2 29.3144 193.053C31.379 194.15 33.4437 193.54 35.3869 193.601C36.6621 193.662 37.0265 192.626 37.0265 191.469C37.0265 189.64 37.0265 187.812 37.0265 185.984C37.0265 168.921 37.0265 151.859 37.0265 134.796C37.0265 134.004 37.1479 133.211 37.2087 132.114C38.3624 131.932 39.3948 131.627 40.4878 131.627C59.9199 131.627 79.352 131.627 98.784 131.627C102.428 131.627 102.61 131.871 102.61 135.71C102.61 153.809 102.61 171.846 102.61 189.945C102.61 191.042 102.731 192.078 102.792 193.419C105.221 193.419 107.407 193.419 109.775 193.419C109.836 192.504 109.957 191.651 109.957 190.737C109.957 172.029 109.957 153.382 109.957 134.674C109.957 133.638 109.472 132.419 111.293 131.749C111.476 132.48 111.779 133.089 111.779 133.699C111.779 152.468 111.779 171.298 111.779 190.067C111.779 191.042 111.779 192.017 111.779 193.297C117.73 193.784 123.378 193.358 129.268 193.601C129.39 192.504 129.632 191.529 129.632 190.615C129.632 171.907 129.572 153.26 129.572 134.552C129.572 133.638 129.815 132.724 129.936 131.749C131.515 131.932 131.393 132.785 131.393 133.638C131.393 141.438 131.333 149.299 131.333 157.099C131.333 168.251 131.333 179.464 131.333 190.615C131.333 193.236 131.636 193.54 134.248 193.601C135.28 193.601 136.251 193.479 137.284 193.601C137.83 193.662 138.316 193.967 139.47 194.515C138.255 195.003 137.648 195.369 137.102 195.369C129.025 195.369 120.949 195.369 112.812 195.369C107.65 195.369 102.549 195.369 97.3873 195.43C89.4931 195.43 81.5988 195.43 73.7045 195.43C63.2598 195.43 52.8758 195.43 42.431 195.43C32.8364 195.43 23.2419 195.43 13.6473 195.43C10.0038 195.43 6.36025 195.43 2.71674 195.43C1.80586 195.43 0.894981 195.551 0.40918 194.15C2.71674 192.992 5.20647 194.211 7.63548 193.419C7.75693 192.504 7.87838 191.651 7.87838 190.798C7.87838 172.029 7.81766 153.199 7.81766 134.43C7.81766 133.699 7.99983 132.968 8.12128 132.114C9.82159 132.602 9.45724 133.76 9.45724 134.674C9.45724 140.28 9.45724 145.826 9.45724 151.432C9.45724 164.656 9.45724 177.818 9.45724 191.042C9.45724 191.834 9.57869 192.565 9.63941 193.54C15.469 193.54 21.1165 193.54 27.0675 193.54C27.1283 192.565 27.2497 191.59 27.2497 190.676C27.2497 172.09 27.2497 153.504 27.3104 134.918C27.4319 133.76 26.8854 132.48 28.3428 131.932ZM39.0911 133.516C37.9981 135.405 38.4839 137.172 38.4839 138.879C38.4232 155.941 38.4232 173.004 38.4839 190.067C38.4839 191.225 38.7268 192.383 38.8482 193.601C59.4948 193.601 79.8378 193.601 100.424 193.601C100.545 192.565 100.788 191.651 100.788 190.676C100.849 187.751 100.788 184.765 100.788 181.84C100.788 166.91 100.788 151.98 100.788 137.05C100.788 135.893 100.606 134.735 100.484 133.577C79.777 133.516 59.4948 133.516 39.0911 133.516Z" fill="black"/>
<path d="M112.629 102.072C110.99 97.2579 113.115 92.7485 111.779 88.3609C83.7239 88.3609 55.8511 88.3609 27.7353 88.3609C27.6138 89.1531 27.3709 89.7625 27.3709 90.4328C27.3709 93.3579 27.4924 96.3439 27.4924 99.2689C27.4924 100 27.3102 100.792 26.6422 101.646C26.3386 101.158 25.7314 100.61 25.7314 100.122C25.6099 92.8094 25.4885 85.4968 25.4277 78.1842C25.4277 77.8186 25.5492 77.392 25.6706 77.0264C26.8244 77.5748 26.8244 77.5748 27.2495 81.2921C28.0996 81.4139 29.0105 81.7186 29.9821 81.7186C52.8755 81.7186 75.7082 81.7186 98.6016 81.7186C102.245 81.7186 105.889 81.8405 109.532 81.8405C110.382 81.8405 111.232 81.6577 112.204 81.5358C112.326 79.8295 112.447 78.367 112.508 76.9045C112.751 76.8436 112.933 76.7826 113.176 76.7217C113.479 77.2092 114.026 77.7576 114.026 78.2451C113.904 85.7406 113.722 93.236 113.54 100.792C113.54 100.975 113.236 101.219 112.629 102.072ZM27.3102 86.289C28.464 86.4109 29.4356 86.5328 30.4072 86.5328C35.3867 86.5328 40.3054 86.5328 45.2849 86.5328C66.5387 86.5328 87.7318 86.5937 108.986 86.5328C110.018 86.5328 111.111 86.289 112.083 86.2281C112.508 84.3999 112.083 83.4858 110.443 83.4858C109.654 83.4858 108.803 83.4858 108.014 83.4858C83.4203 83.4858 58.8873 83.4858 34.2936 83.4858C32.654 83.4858 31.0752 83.4858 29.4356 83.4249C27.796 83.364 27.3102 84.2171 27.3102 86.289Z" fill="black"/>
<path d="M108.683 116.27C108.683 112.797 108.683 109.384 108.683 105.911C108.683 103.351 108.926 103.046 111.415 102.985C116.395 102.925 121.313 102.925 126.293 102.925C127.69 102.925 129.086 102.803 130.483 102.985C132.791 103.229 133.094 103.534 133.094 105.85C133.094 111.456 133.094 117.001 133.094 122.608C133.094 124.314 133.155 126.081 133.094 127.787C133.033 129.677 132.608 130.225 130.787 130.225C124.107 130.286 117.427 130.286 110.747 130.225C109.168 130.225 108.743 129.677 108.743 127.848C108.683 124.009 108.683 120.17 108.683 116.27ZM131.272 123.156C131.272 117.367 131.272 111.943 131.272 106.459C131.272 104.996 130.362 104.692 129.026 104.692C123.378 104.753 117.731 104.692 112.083 104.753C111.597 104.753 111.172 104.936 110.747 105.057C110.747 111.273 110.747 117.245 110.747 123.4C117.67 123.217 124.35 123.644 131.272 123.156ZM130.544 125.228C123.925 125.228 117.366 125.228 110.504 125.228C110.565 126.447 110.626 127.361 110.687 128.275C111.233 128.458 111.476 128.58 111.78 128.58C117.488 128.58 123.257 128.58 128.965 128.519C131.576 128.519 131.94 127.666 130.544 125.228Z" fill="black"/>
<path d="M30.5291 103.108C30.7112 112.249 30.7112 120.963 30.5898 129.677C29.9218 129.982 29.5575 130.287 29.1931 130.287C22.5133 130.287 15.8336 130.348 9.21452 130.287C6.90696 130.287 6.66406 129.86 6.66406 127.605C6.66406 120.476 6.66406 113.407 6.72479 106.277C6.72479 103.291 6.96769 102.986 10.0039 102.986C14.6798 102.986 19.2949 103.047 23.9707 103.108C25.914 103.047 28.0393 103.047 30.5291 103.108ZM8.9109 123.401C15.1049 123.401 21.2381 123.401 27.3714 123.401C28.6466 123.401 29.1931 122.791 29.1931 121.573C29.1931 116.576 29.1931 111.64 29.1931 106.643C29.1931 105.241 28.5251 104.693 27.1285 104.693C21.0559 104.754 15.0441 104.693 8.9109 104.693C8.66799 105.241 8.30364 105.729 8.30364 106.155C8.24292 111.518 8.30364 116.941 8.30364 122.304C8.24292 122.669 8.60727 122.974 8.9109 123.401ZM9.09307 128.58C15.0441 128.58 20.8738 128.58 26.7034 128.58C28.5859 128.58 29.2538 128.093 29.1931 126.752C29.1324 125.473 28.5251 125.046 26.5819 125.046C23.9707 125.046 21.3596 125.046 18.7484 125.046C15.4085 125.046 12.1293 125.046 8.97162 125.046C7.93929 126.326 7.75712 127.423 9.09307 128.58Z" fill="black"/>
<path d="M31.8652 124.802C32.1689 124.62 32.5332 124.254 32.8368 124.254C57.4305 124.254 81.9635 124.254 106.557 124.254C106.861 124.254 107.225 124.559 107.893 124.924C107.164 125.351 106.739 125.777 106.254 125.899C105.586 126.021 104.857 125.96 104.128 125.96C81.0527 125.96 58.0378 125.96 34.9622 125.96C33.9299 125.96 32.8976 125.716 31.8652 125.595C31.8652 125.351 31.8652 125.107 31.8652 124.802Z" fill="black"/>
<path d="M107.407 120.841C106.982 122.121 105.949 121.877 105.099 121.877C102.366 121.877 99.6339 121.877 96.9012 121.877C76.3761 121.877 55.851 121.877 35.3259 121.877C34.2328 121.877 32.8361 122.425 32.1074 120.963C32.7147 119.439 33.9899 119.927 35.0222 119.927C43.6452 119.927 52.2075 119.927 60.8304 119.927C75.283 119.927 89.7356 119.927 104.188 119.927C105.342 119.988 106.678 119.5 107.407 120.841Z" fill="black"/>
<path d="M107.468 106.399C106.8 106.703 106.375 107.008 105.95 107.008C81.5987 106.947 57.1872 106.886 32.8364 106.825C32.6542 106.825 32.5328 106.399 32.3506 106.155C32.7757 104.875 33.808 105.241 34.6581 105.241C51.2361 105.241 67.8748 105.241 84.4528 105.241C91.1326 105.241 97.8124 105.241 104.492 105.241C105.464 105.241 106.557 104.875 107.468 106.399Z" fill="black"/>
<path d="M127.082 20.78C122.588 20.6581 118.641 20.6581 114.572 20.78C114.269 25.716 114.572 30.1036 114.147 34.4302C113.904 34.4912 113.662 34.5521 113.419 34.5521C113.176 34.0037 112.751 33.5161 112.751 32.9677C112.751 29.9208 112.933 26.8739 112.872 23.8269C112.872 22.4863 112.386 21.1456 112.204 19.9878C112.508 18.1597 112.933 16.4534 112.994 14.7471C113.054 12.7971 113.419 10.9689 114.39 9.26265C115.544 7.37355 117.366 6.27666 119.613 5.5454C119.795 3.90006 120.038 2.19378 120.281 0C122.467 1.64534 120.949 3.77818 122.102 5.42352C122.345 5.5454 122.831 5.72822 123.256 5.91103C126.839 7.49543 128.6 10.2377 128.843 14.1987C128.964 16.1487 127.932 18.3425 129.693 19.4394C129.329 21.0847 128.904 22.2425 128.904 23.4613C128.843 26.6301 128.964 29.738 128.904 32.9068C128.904 33.4552 128.6 33.9427 128.418 34.5521C127.143 34.3083 127.143 33.4552 127.143 32.663C127.143 29.9208 127.143 27.1785 127.143 24.4363C127.082 23.4004 127.082 22.2425 127.082 20.78ZM126.96 19.1956C126.96 16.7581 127.082 14.808 126.9 12.919C126.657 10.0548 124.167 7.61731 121.434 7.25168C118.702 6.88605 115.969 8.65326 115.18 11.7002C114.694 13.5893 114.755 15.6612 114.694 17.6722C114.694 18.5862 115.362 19.1347 116.333 19.1347C119.734 19.2566 123.135 19.1956 126.96 19.1956Z" fill="black"/>
<path d="M18.6873 0.304688C20.3269 1.76721 18.9302 3.71724 19.8411 5.30164C20.0233 5.42352 20.2055 5.72821 20.4484 5.78915C25.1242 7.55636 26.7031 11.0908 26.5816 15.844C26.5209 17.1846 27.0067 18.4643 27.3103 20.1706C27.1281 20.9628 26.7031 22.1816 26.6423 23.4004C26.5209 26.3254 26.7031 29.3114 26.6423 32.2364C26.6423 32.9677 26.3994 33.699 26.278 34.613C24.7599 34.1865 24.8813 33.2115 24.8813 32.3583C24.8813 29.3114 24.8813 26.2645 24.8206 23.2175C24.8206 22.5472 24.6991 21.816 24.5777 20.78C20.5091 20.6581 16.562 20.5972 12.4934 20.9019C11.6432 25.5941 12.797 30.1036 11.6432 34.7349C10.368 34.0037 10.4287 33.0896 10.4894 32.2364C10.5502 29.1895 10.6716 26.1426 10.5502 23.0957C10.5502 22.0597 10.0644 21.0238 9.76074 19.8659C10.0644 18.83 10.7323 17.4893 10.6716 16.2096C10.368 10.9689 12.129 7.12979 17.1085 5.60633C18.4444 3.83912 16.6834 1.64533 18.6873 0.304688ZM24.8206 18.9519C24.8206 16.7581 24.942 14.9909 24.8206 13.3455C24.5777 10.2986 22.1487 7.73918 19.3553 7.31261C16.7441 6.94698 14.4366 8.53138 12.9792 11.3345C11.9468 13.3455 12.3112 15.4784 12.3112 17.5503C12.3112 18.83 13.2221 19.1956 14.3759 19.1956C16.562 19.1956 18.8088 19.1956 20.9949 19.1956C22.2094 19.1956 23.3632 19.0737 24.8206 18.9519Z" fill="black"/>
<path d="M133.64 199.452C131.272 200.183 69.9998 200.244 67.6315 199.513C67.3886 198.294 68.178 198.111 69.0282 198.111C70.7285 198.05 72.4895 198.05 74.1898 198.111C93.1968 198.111 112.204 198.111 131.211 198.111C132.122 198.111 133.275 197.685 133.64 199.452Z" fill="black"/>
<path d="M110.99 68.7998C113.116 68.7998 115.18 68.7998 117.306 68.7998C121.253 68.7998 125.2 68.8607 129.147 68.7998C130.544 68.7998 131.212 69.3482 131.272 70.6889C131.272 70.9936 131.272 71.2983 131.272 71.603C131.394 75.6249 130.969 75.8687 127.022 75.7468C123.014 75.6249 118.945 75.7468 114.937 75.7468C113.662 75.7468 112.387 75.7468 111.112 75.7468C109.958 73.3092 109.897 71.1764 110.99 68.7998ZM124.471 70.5061C122.407 70.5061 120.706 70.5061 119.006 70.5061C117.913 70.5061 117.002 70.8108 116.82 72.0295C116.698 73.0046 117.67 73.9796 119.006 74.0405C120.767 74.1014 122.528 73.9186 124.471 73.7968C124.471 72.6389 124.471 71.7858 124.471 70.5061ZM113.48 70.3233C113.055 70.7498 112.265 71.2373 111.962 71.9077C111.598 72.8217 112.569 73.9186 113.601 73.9796C114.755 74.0405 115.241 73.4311 115.302 72.3342C115.423 71.2983 114.998 70.628 113.48 70.3233ZM129.451 70.6889C126.657 70.567 126.111 70.8717 126.172 72.2124C126.232 73.553 126.779 73.8577 129.329 73.6749C129.39 72.8217 129.451 71.8467 129.451 70.6889Z" fill="black"/>
<path d="M28.4642 75.4419C27.7962 75.5638 27.2497 75.8075 26.6425 75.8075C22.8168 75.8075 18.9911 75.6857 15.1654 75.6857C13.8902 75.6857 12.5542 75.8685 11.279 75.8685C8.97143 75.9294 8.12127 75.2591 8.06055 72.8825C8.06055 71.6028 8.30345 70.384 8.4249 68.9824C15.2261 68.9824 21.663 68.9824 28.2213 68.9824C29.4358 71.0543 29.1929 73.1872 28.4642 75.4419ZM22.5131 70.5668C20.2663 70.5668 18.3838 70.5668 16.5014 70.5668C15.469 70.5668 14.7403 70.9934 14.7403 72.1512C14.7403 73.2481 15.3476 73.9184 16.3799 73.9794C18.3231 74.1013 20.327 74.4059 22.3917 73.4309C22.3917 72.6387 22.4524 71.8465 22.5131 70.5668ZM27.189 70.8715C24.76 70.4449 24.092 70.6887 23.9098 71.8465C23.7277 73.0044 24.6993 74.0403 25.853 73.9794C27.1283 73.9184 27.4319 73.3091 27.189 70.8715ZM11.947 70.4449C10.4896 70.4449 9.70013 71.2371 9.76085 72.334C9.82158 73.4309 10.4896 73.9794 11.5219 74.0403C12.5542 74.1013 13.3436 73.1872 13.2222 72.0293C13.1007 71.0543 12.6757 70.4449 11.947 70.4449Z" fill="black"/>
<path d="M57.9163 199.33C57.4912 199.635 57.2483 199.878 57.0054 199.878C40.306 199.939 23.6065 199.939 6.90711 199.939C6.54276 199.939 6.17841 199.635 5.87478 199.513C5.69261 198.233 6.42131 197.989 7.33219 197.989C8.66814 197.989 9.94337 198.05 11.2793 198.05C25.8534 198.05 40.4274 198.05 55.0015 198.05C55.7302 198.05 56.4589 197.989 57.1269 198.172C57.4912 198.294 57.6734 198.903 57.9163 199.33Z" fill="black"/>
<path d="M28.7071 42.5353C21.8452 42.5353 15.4083 42.5353 8.60707 42.5353C8.4249 41.3165 8.06055 40.1587 8.06055 39.0008C8.06055 36.3195 8.60707 35.832 11.279 35.832C16.137 35.832 20.995 35.832 25.853 35.832C28.7071 35.832 29.1322 36.2586 29.0715 39.2446C29.0107 40.2196 28.8286 41.1946 28.7071 42.5353ZM22.3917 37.6602C20.2056 37.6602 18.3231 37.6602 16.4406 37.6602C15.5905 37.6602 14.801 37.9649 14.7403 39.0008C14.6796 39.9758 15.0439 40.9509 16.0763 41.0118C18.1409 41.1337 20.2663 41.5602 22.3917 40.5243C22.3917 39.7321 22.3917 39.0008 22.3917 37.6602ZM27.5533 39.4883C27.4926 37.9649 26.7639 37.5992 25.7316 37.5992C24.6993 37.5992 23.9706 38.0258 23.9706 39.1836C23.9706 40.2805 24.8207 41.1337 25.853 41.1337C26.8854 41.1337 27.5533 40.3415 27.5533 39.4883ZM12.7971 41.1337C12.7971 39.854 12.7971 38.7571 12.7971 37.5383C11.279 37.5992 10.0038 37.3555 9.76085 39.0618C9.57868 40.3415 10.2467 40.8899 12.7971 41.1337Z" fill="black"/>
<path d="M110.869 42.4741C109.897 40.0975 110.018 38.1475 110.929 35.9537C112.447 35.8928 114.026 35.71 115.605 35.71C119.977 35.71 124.289 35.71 128.661 35.7709C130.786 35.7709 131.212 36.1975 131.212 38.2084C131.212 39.5491 131.029 40.9507 130.908 42.4741C124.046 42.4741 117.488 42.4741 110.869 42.4741ZM124.593 37.66C122.224 37.66 120.463 37.66 118.641 37.66C117.67 37.66 116.82 38.0866 116.88 39.2444C116.941 40.2194 117.488 41.0725 118.52 41.0725C120.402 41.1335 122.285 41.0725 124.41 41.0725C124.471 39.8538 124.532 38.9397 124.593 37.66ZM129.268 40.8288C129.268 39.7319 129.268 38.7569 129.268 37.7209C127.872 37.5381 126.657 37.2334 125.989 38.6959C126.779 41.0725 126.779 41.0725 129.268 40.8288ZM113.298 41.2554C114.876 41.1335 115.241 40.4022 115.362 39.4272C115.423 38.3913 115.059 37.66 113.966 37.5991C112.812 37.5381 111.719 38.3303 111.962 39.2444C112.205 40.0366 112.933 40.7069 113.298 41.2554Z" fill="black"/>
<path d="M32.29 79.1587C30.8326 78.854 31.0148 77.818 31.0148 76.9649C31.0148 73.7961 31.0148 70.6882 31.0148 67.5194C31.0148 66.3616 30.954 65.3257 29.9824 64.4725C29.4966 64.0459 29.193 63.2537 29.193 62.6444C29.1323 58.3787 29.1323 54.113 29.193 49.8473C29.193 49.3598 29.6181 48.8723 30.4682 48.3848C30.5897 49.116 30.8933 49.7863 30.8933 50.5176C30.8933 53.8692 30.8933 57.2208 30.8326 60.5725C30.8326 61.7303 30.8326 62.7053 31.8042 63.6194C32.3507 64.1069 32.7151 65.021 32.7151 65.7522C32.8365 69.8351 32.7758 73.857 32.7758 77.9399C32.8365 78.3055 32.4722 78.7321 32.29 79.1587Z" fill="black"/>
<path d="M67.1462 100.792C69.636 101.219 71.9435 100.427 74.4332 101.402C74.0082 102.011 73.826 102.559 73.5831 102.559C70.7897 102.864 68.0571 102.986 64.9601 102.316C64.9601 100.061 64.7779 97.9891 65.0208 95.9172C65.2637 93.4187 67.3891 91.5296 69.5752 91.3468C71.4577 91.2249 73.7045 92.9921 74.4332 95.1859C75.1012 97.1359 75.1012 97.1359 74.2511 99.1469C73.0973 99.025 73.158 98.2328 73.158 97.3797C73.158 96.1 72.9758 95.064 71.8828 94.1499C70.0003 92.6265 67.8749 92.9921 67.0248 95.2468C66.2353 97.014 65.9317 98.9031 67.1462 100.792Z" fill="black"/>
<path d="M82.0238 97.5013C82.7525 98.8419 83.1776 99.6951 83.7241 100.731C84.5135 100.792 85.303 100.975 86.0317 100.914C87.3069 100.792 89.2501 101.645 89.6145 99.6951C89.9788 97.8669 90.2824 95.856 88.6429 94.2716C87.0033 92.7481 85.3637 92.7481 83.967 94.5153C83.3598 95.2466 82.874 96.0997 82.2667 96.9529C80.9308 95.9169 81.5987 95.1247 82.0238 94.3934C83.2383 92.2606 85.3637 91.0418 87.1855 91.4684C89.4323 91.9559 91.0719 94.0278 91.1326 96.5872C91.1933 98.4154 91.1326 100.183 91.1326 102.194C88.2178 103.29 85.4244 103.047 82.6918 102.559C81.2344 102.194 81.0522 100.853 82.0238 97.5013Z" fill="black"/>
<path d="M109.957 48.2637C110.139 48.9949 110.443 49.7262 110.443 50.4575C110.504 54.1747 110.382 57.9529 110.504 61.6701C110.564 63.5592 109.532 64.6561 108.135 65.753C108.135 69.9578 108.135 74.2235 108.135 78.4282C108.135 78.611 107.892 78.7329 107.589 79.0985C107.285 78.672 106.86 78.3673 106.86 78.0016C106.799 73.7359 106.799 69.5312 106.86 65.2655C106.86 64.778 106.921 64.0467 107.224 63.8639C109.168 62.5842 108.621 60.6951 108.621 58.9279C108.682 56.1247 108.621 53.2606 108.621 50.4575C108.621 49.7262 108.864 48.9949 108.985 48.2637C109.35 48.3246 109.653 48.3246 109.957 48.2637Z" fill="black"/>
<path d="M48.5645 96.0998C50.5685 97.3186 49.1111 99.2686 50.2648 100.67C52.1473 100.914 54.1513 101.34 56.3374 100.244C56.3981 99.3295 56.3981 98.4154 56.4588 97.5623C56.5803 95.856 55.7908 94.6982 54.5156 93.7232C53.0582 92.6263 51.9044 93.2966 50.6899 94.2716C50.447 94.4545 49.9612 94.3935 49.2325 94.4544C49.4147 93.7232 49.354 92.9919 49.6576 92.7482C51.0543 91.7122 52.5724 90.8591 54.3942 91.7122C56.2766 92.5654 57.6126 93.9669 57.7948 96.0388C57.977 98.0498 57.8555 100.061 57.8555 102.133C54.9407 103.23 52.2688 102.803 49.5969 102.681C49.1111 102.681 48.3824 102.072 48.3216 101.645C48.0787 99.817 47.6537 98.0498 48.5645 96.0998Z" fill="black"/>
<path d="M39.5164 100.122C39.5164 98.9031 39.6379 97.4406 39.4557 96.0999C39.2735 94.5156 37.5125 93.114 36.1158 93.114C34.7799 93.1749 33.0796 94.6984 32.8367 96.2218C32.7152 97.1968 32.7152 98.1719 32.6545 99.6953C31.8651 99.0859 31.2578 98.7812 31.2578 98.5375C31.3185 97.1359 31.3185 95.6734 31.8043 94.3937C32.533 92.5046 34.9013 91.1639 36.6016 91.3467C38.5448 91.5905 40.8524 93.6015 41.0953 95.7343C41.3382 97.8062 41.156 99.9391 41.156 101.828C39.2735 103.169 37.5125 102.742 35.8122 102.681C35.4479 102.681 35.1442 102.133 34.7192 101.767C36.0551 100.183 37.9376 101.523 39.5164 100.122Z" fill="black"/>
<path d="M107.164 99.5737C106.921 99.1471 106.557 98.7815 106.496 98.3549C106.435 97.8674 106.678 97.3799 106.678 96.8924C106.557 95.1861 104.796 93.1751 103.278 93.1142C101.699 93.0532 99.8771 94.6986 99.6949 96.5877C99.5735 97.7455 99.6949 98.9643 99.6949 100.488C101.395 100.731 102.913 100.975 104.492 101.219C103.096 103.108 101.942 103.23 98.2375 102.011C98.1768 100.183 97.9946 98.1721 98.116 96.1611C98.359 93.5407 101.213 91.0423 103.46 91.286C105.95 91.5298 108.075 94.0892 108.075 96.8314C108.075 97.6846 107.954 98.5377 107.893 99.3908C107.711 99.5127 107.407 99.5127 107.164 99.5737Z" fill="black"/>
<path d="M11.5825 77.0262C11.8861 84.7654 11.4003 92.5655 11.461 100.305C11.461 100.731 10.9752 101.097 10.5502 101.828C10.1858 101.219 9.76074 100.792 9.76074 100.427C9.88219 92.992 10.0036 85.6185 10.1858 78.184C10.1858 77.7574 10.5502 77.3309 10.7323 76.9043C11.036 76.9652 11.2789 77.0262 11.5825 77.0262Z" fill="black"/>
<path d="M128.539 101.585C128.418 100.914 128.175 100.305 128.114 99.6347C127.932 92.2612 127.811 84.8876 127.75 77.5141C127.75 77.3313 128.236 77.1484 128.661 76.8438C128.965 77.3922 129.45 77.8188 129.45 78.3063C129.632 85.3142 129.815 92.2612 129.936 99.2691C129.936 100.061 129.632 100.914 129.511 101.707C129.147 101.646 128.843 101.585 128.539 101.585Z" fill="black"/>
<path d="M113.54 43.1445C113.905 44.3633 114.269 44.9727 114.269 45.5821C114.755 55.7588 114.33 65.3261 113.237 67.5809C112.872 66.7887 112.447 66.2402 112.447 65.6308C112.447 58.8667 112.508 52.0415 112.569 45.2774C112.569 44.7899 112.994 44.3024 113.54 43.1445Z" fill="black"/>
<path d="M11.5828 43.7539C11.765 44.4242 12.1294 45.1555 12.1294 45.8258C12.1294 52.1634 12.1294 58.562 12.0079 64.8996C12.0079 65.6308 11.6436 66.3011 10.9149 67.0324C10.7327 66.5449 10.3076 66.0574 10.3076 65.6308C10.3076 58.9885 10.3076 52.2853 10.3683 45.643C10.3683 45.0336 10.7327 44.4242 10.9149 43.7539C11.1578 43.7539 11.4007 43.7539 11.5828 43.7539Z" fill="black"/>
<path d="M26.2786 43.9369C26.4608 44.5463 26.7644 45.2166 26.7644 45.826C26.7644 52.773 26.7644 59.7809 26.7037 66.7279C26.7037 66.8498 26.2179 67.0326 25.9142 67.1545C25.7321 66.8498 25.4284 66.667 25.4284 66.4232C25.307 59.2325 25.2463 52.1027 25.1855 44.9119C25.1855 44.5463 25.4892 44.2416 25.6714 43.876C25.8535 43.9369 26.0357 43.9369 26.2786 43.9369Z" fill="black"/>
<path d="M128.297 43.876C128.479 44.1807 128.843 44.5463 128.843 44.851C128.965 52.0417 129.025 59.2325 129.086 66.4232C129.086 66.5451 128.843 66.7279 128.661 66.8498C128.479 66.9107 128.297 66.9107 127.872 66.9716C127.021 64.4732 127.629 61.8528 127.446 59.2934C127.264 56.734 127.507 54.2355 127.325 51.6761C127.143 49.0557 127.143 46.4963 127.629 43.9369C127.872 43.9369 128.054 43.9369 128.297 43.876Z" fill="black"/>
<path d="M88.2784 192.2C86.4566 191.347 86.9424 190.25 86.9424 189.275C86.9424 179.098 87.0032 168.983 86.821 158.806C86.6995 153.382 84.5134 148.812 80.0197 145.521C70.8502 138.696 60.5877 142.17 55.3653 149.726C53.3007 152.773 52.2683 156.307 52.2683 160.025C52.2683 169.653 52.2683 179.342 52.2683 188.97C52.2683 189.945 52.2076 190.859 52.1469 192.139C50.5073 191.347 50.9324 190.25 50.9324 189.336C50.9324 180.622 50.8717 171.847 50.9324 163.132C50.9931 160.086 50.9324 156.978 51.6611 154.114C54.0901 144.424 64.1705 138.879 72.7327 140.402C81.8415 142.048 88.582 150.213 88.6427 159.537C88.7035 169.592 88.7035 179.647 88.7035 189.702C88.7035 190.494 88.4606 191.225 88.2784 192.2Z" fill="black"/>
<path d="M46.8642 148.08C44.1315 148.019 41.7632 145.399 41.9454 142.657C42.0669 140.28 44.9209 137.66 47.2892 137.721C49.9004 137.843 52.3901 140.524 52.3294 143.205C52.208 146.069 49.9004 148.202 46.8642 148.08ZM47.1071 146.313C49.0503 146.313 50.6291 144.79 50.6291 142.961C50.6291 141.316 48.6859 139.488 47.1071 139.488C45.5889 139.549 43.7672 141.316 43.7672 142.84C43.6457 144.729 45.2246 146.313 47.1071 146.313Z" fill="black"/>
<path d="M92.2866 148.08C89.2504 148.08 87.1857 145.886 87.2464 142.9C87.3071 140.219 89.7362 137.721 92.2259 137.721C94.8371 137.721 97.3268 140.402 97.2661 143.144C97.2661 146.008 95.1407 148.08 92.2866 148.08ZM92.3473 146.374C94.0476 146.313 95.748 144.729 95.748 143.144C95.8087 141.499 93.9262 139.549 92.2866 139.549C90.647 139.549 88.7038 141.499 88.7038 143.083C88.7645 144.729 90.5863 146.435 92.3473 146.374Z" fill="black"/>
<path d="M127.811 122.487C127.446 121.877 127.082 121.572 127.021 121.207C126.96 117.185 126.96 113.163 127.021 109.141C127.021 108.836 127.385 108.471 127.75 107.861C128.175 108.532 128.6 108.958 128.661 109.446C129.207 113.529 128.782 120.658 127.811 122.487Z" fill="black"/>
<path d="M120.463 122.242C120.22 121.755 119.855 121.328 119.855 120.902C119.916 116.88 120.038 112.858 120.159 108.836C120.159 108.653 120.584 108.531 121.009 108.227C121.191 108.775 121.556 109.202 121.556 109.628C121.495 113.65 121.434 117.672 121.313 121.694C121.313 121.816 120.888 121.938 120.463 122.242Z" fill="black"/>
<path d="M113.419 121.816C112.69 119.317 112.811 110.359 113.722 108.104C114.147 108.897 114.694 109.384 114.694 109.933C114.755 113.345 114.694 116.819 114.694 120.231C114.694 121.145 114.512 121.816 113.419 121.816Z" fill="black"/>
<path d="M19.0515 108.166C19.9624 112.249 19.2337 116.393 19.4766 120.537C19.4766 121.085 19.0515 121.694 18.6872 122.547C18.2014 121.877 17.7763 121.572 17.7763 121.268C17.7156 117.368 17.6549 113.407 17.7156 109.507C17.7156 109.08 18.0799 108.654 18.2621 108.227C18.4443 108.227 18.7479 108.227 19.0515 108.166Z" fill="black"/>
<path d="M25.732 122.242C25.3677 121.816 25.0033 121.572 24.9426 121.267C24.5782 119.744 25.0033 109.75 25.4891 108.104C25.9142 108.592 26.5214 108.958 26.5214 109.384C26.5822 113.284 26.5214 117.245 26.4607 121.145C26.4607 121.511 26.0356 121.816 25.732 122.242Z" fill="black"/>
<path d="M11.522 107.861C11.9471 108.714 12.2507 109.08 12.2507 109.385C12.2507 113.407 12.2507 117.429 12.19 121.451C12.19 121.755 11.9471 121.999 11.8257 122.304C11.2791 121.938 10.8541 121.755 10.8541 121.633C10.7326 117.551 10.6719 113.407 10.6719 109.324C10.6719 108.958 11.0362 108.654 11.522 107.861Z" fill="black"/>
</svg>
